<?xml version="1.0" standalone="no"?>
<!DOCTYPE svg PUBLIC "-//W3C//DTD SVG 20010904//EN"
 "http://www.w3.org/TR/2001/REC-SVG-20010904/DTD/svg10.dtd">
<svg version="1.0" xmlns="http://www.w3.org/2000/svg"
 width="16.000000pt" height="16.000000pt" viewBox="0 0 16.000000 16.000000"
 preserveAspectRatio="xMidYMid meet">
<metadata>
Created by potrace 1.11, written by Peter Selinger 2001-2013
</metadata>
<g transform="translate(0.000000,16.000000) scale(0.000806,-0.000806)"
fill="#000000" stroke="none">
<path d="M9678 19835 c-2 -2 -45 -6 -97 -9 -94 -7 -149 -12 -226 -22 -22 -3
-54 -7 -72 -9 -17 -2 -60 -9 -95 -15 -34 -7 -74 -13 -88 -15 -14 -2 -25 -4
-25 -5 0 -1 -9 -3 -20 -5 -44 -6 -95 -17 -210 -46 -208 -52 -296 -78 -312 -91
-7 -5 -16 -7 -21 -4 -5 3 -19 -1 -33 -7 -13 -7 -44 -19 -69 -27 -25 -8 -80
-29 -123 -47 -43 -18 -85 -33 -93 -33 -8 0 -14 -4 -14 -10 0 -5 -3 -9 -7 -8
-21 4 -361 -156 -375 -176 -4 -6 -8 -8 -8 -4 0 6 -214 -115 -266 -150 -6 -4
-39 -26 -73 -49 -34 -24 -66 -43 -69 -43 -4 0 -19 -11 -34 -25 -15 -14 -29
-25 -32 -25 -3 0 -42 -28 -87 -62 -45 -35 -88 -67 -96 -73 -19 -13 -71 -55
-94 -77 -11 -10 -21 -18 -24 -18 -2 0 -17 -12 -33 -27 -15 -16 -46 -43 -68
-61 -103 -86 -386 -377 -377 -386 4 -3 2 -6 -4 -6 -9 0 -78 -77 -133 -149 -14
-18 -36 -45 -48 -60 -40 -44 -212 -289 -212 -300 0 -6 -4 -11 -10 -11 -5 0
-10 -6 -10 -14 0 -8 -4 -16 -8 -18 -7 -3 -122 -184 -122 -193 0 -2 -20 -37
-45 -79 -24 -42 -42 -76 -39 -76 3 0 -3 -12 -14 -27 -20 -31 -121 -239 -126
-263 -1 -3 -13 -30 -27 -61 -15 -30 -32 -73 -39 -95 -7 -21 -16 -43 -20 -49
-7 -10 -69 -186 -75 -215 -2 -8 -15 -49 -28 -90 -26 -76 -62 -205 -71 -250 -5
-23 -9 -41 -21 -90 -11 -44 -16 -69 -35 -175 -19 -107 -22 -124 -34 -210 -30
-205 -37 -318 -41 -620 -1 -132 1 -250 6 -262 5 -13 4 -25 -2 -28 -5 -4 -7
-10 -4 -15 3 -4 7 -39 10 -77 5 -69 13 -148 20 -193 2 -14 6 -45 9 -70 11 -88
13 -98 40 -250 2 -14 9 -45 15 -69 5 -25 8 -49 5 -53 -3 -4 -1 -8 3 -8 5 0 9
-8 10 -17 3 -32 11 -67 23 -98 6 -16 11 -31 11 -32 -1 -2 -1 -4 0 -5 0 -2 3
-14 5 -28 8 -43 11 -55 17 -70 5 -13 38 -125 42 -140 8 -39 111 -318 144 -393
72 -164 111 -246 161 -342 32 -60 69 -130 82 -155 12 -25 25 -47 28 -50 3 -3
26 -39 50 -80 25 -41 48 -76 52 -78 5 -2 8 -10 8 -18 0 -8 5 -14 10 -14 6 0
10 -4 10 -9 0 -9 97 -161 120 -188 5 -7 10 -19 10 -27 0 -8 4 -18 10 -21 16
-10 114 -225 102 -225 -4 0 -2 -4 4 -8 13 -9 69 -193 78 -257 2 -16 6 -37 9
-45 13 -34 21 -154 21 -300 -1 -153 -3 -182 -25 -290 -5 -30 -12 -66 -15 -80
-2 -14 -7 -32 -11 -40 -8 -18 -6 -14 -22 -70 -7 -25 -17 -49 -21 -55 -5 -5 -9
-13 -9 -17 -1 -5 -1 -9 -2 -10 0 -2 -2 -10 -4 -18 -2 -8 -22 -58 -45 -110 -23
-52 -62 -144 -87 -205 -25 -60 -55 -132 -68 -160 -12 -27 -31 -72 -40 -98 -10
-26 -22 -50 -26 -53 -5 -3 -9 -14 -9 -25 0 -10 -4 -19 -8 -19 -5 0 -9 -6 -9
-12 0 -7 -7 -30 -16 -50 -38 -84 -141 -329 -143 -338 0 -3 -11 -27 -23 -55
-13 -27 -30 -68 -38 -90 -9 -22 -20 -45 -25 -51 -5 -7 -10 -21 -13 -32 -2 -11
-15 -45 -29 -74 -14 -30 -26 -58 -26 -61 0 -4 -16 -41 -35 -83 -19 -41 -35
-78 -35 -80 0 -3 -11 -30 -25 -60 -14 -30 -25 -56 -25 -58 0 -2 -8 -21 -17
-42 -9 -22 -17 -41 -18 -44 -3 -9 -25 -61 -48 -113 -13 -29 -30 -68 -37 -87
-7 -19 -17 -39 -21 -45 -3 -5 -10 -25 -14 -42 -3 -18 -10 -33 -15 -33 -4 0
-11 -12 -14 -26 -4 -14 -15 -45 -26 -68 -10 -22 -37 -86 -60 -141 -59 -140
-83 -198 -119 -277 -12 -26 -21 -51 -21 -55 0 -4 -7 -21 -15 -37 -9 -16 -13
-31 -10 -34 3 -3 0 -10 -5 -17 -5 -6 -11 -20 -13 -31 -1 -10 -5 -23 -9 -29 -9
-14 -48 -200 -55 -260 -15 -120 -7 -398 13 -490 2 -11 6 -31 8 -45 3 -14 12
-52 21 -85 9 -33 18 -64 19 -70 1 -5 8 -20 14 -32 7 -13 10 -23 8 -23 -6 0 53
-140 80 -191 10 -19 17 -37 16 -41 -1 -5 1 -8 6 -8 4 0 13 -15 21 -32 8 -18
17 -35 20 -38 3 -3 27 -37 53 -76 26 -39 62 -88 80 -110 43 -52 238 -244 248
-244 5 0 16 -7 24 -16 22 -21 116 -84 127 -84 5 0 9 -3 9 -7 0 -5 10 -13 23
-18 12 -6 45 -23 72 -37 153 -81 354 -144 525 -165 80 -10 6692 -11 6775 -1
33 4 85 12 115 18 30 6 65 13 77 16 12 2 34 9 48 14 14 5 25 8 25 6 0 -2 46
14 103 36 56 22 110 42 120 45 9 3 17 9 17 14 0 5 9 9 19 9 11 0 23 5 26 10 4
6 24 18 46 27 21 8 39 18 39 22 0 3 23 19 50 36 28 16 50 33 50 37 0 4 5 8 11
8 32 0 239 200 324 313 31 39 62 81 70 92 8 10 15 23 15 27 0 4 7 16 15 25 8
10 15 22 14 27 0 5 3 12 8 15 29 21 148 297 158 368 2 12 6 27 10 34 4 6 9 23
11 38 2 14 8 46 13 71 29 141 35 356 14 505 -13 100 -16 115 -28 170 -4 17 -8
37 -10 45 -2 8 -4 16 -5 18 -2 1 -3 5 -4 10 -1 4 -5 13 -9 20 -5 6 -6 12 -3
12 6 0 -15 59 -41 119 -8 18 -16 39 -18 45 -1 6 -12 33 -23 59 -12 27 -22 50
-22 52 0 1 -10 24 -22 51 -12 27 -23 51 -23 54 -1 3 -8 19 -15 35 -7 17 -14
33 -15 38 -2 4 -4 10 -5 15 -1 4 -2 10 -1 15 0 4 -3 7 -9 7 -5 0 -10 6 -10 13
0 11 -40 109 -97 234 -12 28 -23 54 -23 57 0 6 -8 24 -59 138 -11 26 -21 50
-21 52 0 2 -10 25 -22 52 -12 27 -23 51 -23 54 -2 5 -5 13 -59 138 -20 46 -36
90 -36 97 0 7 -7 18 -15 25 -9 7 -13 15 -11 18 3 2 0 14 -6 26 -7 11 -13 23
-13 26 -4 16 -107 255 -126 293 -10 20 -17 37 -14 37 3 0 -22 60 -76 177 -10
24 -19 46 -19 50 0 4 -8 25 -19 47 -38 83 -59 132 -72 169 -7 20 -17 37 -22
37 -4 0 -6 4 -3 8 3 5 -9 37 -26 73 -17 35 -31 70 -31 77 0 6 -5 12 -10 12 -6
0 -7 3 -4 6 3 4 1 16 -5 28 -7 11 -13 23 -13 26 -1 3 -8 19 -15 35 -7 17 -14
32 -15 35 -4 13 -20 50 -41 98 -13 29 -24 55 -24 57 0 2 -11 28 -24 57 -30 66
-93 245 -99 284 -3 16 -13 63 -22 104 -21 95 -29 360 -15 460 25 173 31 202
40 220 4 8 9 20 9 25 2 16 22 89 28 105 3 8 7 21 9 28 4 23 66 166 81 189 9
13 11 23 7 23 -5 0 -4 4 1 8 6 4 15 16 21 27 44 80 68 121 121 200 33 50 88
137 123 195 35 58 70 116 79 130 8 14 14 28 13 33 -1 4 3 7 9 7 5 0 8 4 4 9
-3 5 -1 12 4 15 11 7 131 249 131 265 0 6 5 11 10 11 6 0 10 5 10 11 0 6 6 25
14 42 54 122 64 147 59 147 -3 0 -1 6 4 13 5 6 17 35 27 62 10 28 22 59 27 70
10 22 88 260 93 285 2 8 6 22 9 30 4 8 14 44 22 80 9 36 18 74 21 85 3 11 7
29 9 40 2 11 8 36 13 55 5 19 9 38 10 43 1 4 2 8 3 10 5 15 19 98 26 149 3 26
10 45 14 42 5 -3 6 1 3 9 -3 8 0 50 6 93 21 147 22 158 37 354 9 118 9 509 0
610 -4 41 -9 113 -12 159 -3 46 -7 87 -9 90 -3 3 -7 34 -11 68 -3 34 -8 72
-11 85 -2 13 -6 37 -9 53 -3 17 -8 43 -11 60 -4 16 -8 43 -10 60 -2 16 -6 41
-9 55 -6 23 -19 81 -32 140 -7 35 -8 39 -22 90 -33 123 -81 280 -113 370 -11
30 -21 60 -22 65 -2 6 -9 24 -15 40 -7 17 -24 59 -37 95 -14 36 -35 88 -48
115 -25 53 -51 110 -63 141 -5 10 -24 48 -43 84 -18 36 -35 71 -36 78 -1 8
-10 22 -18 31 -9 10 -16 21 -16 25 0 4 -16 35 -36 69 -20 34 -44 76 -54 92
-36 64 -125 202 -153 238 -16 20 -26 37 -23 37 3 0 -2 8 -11 18 -10 10 -25 29
-33 42 -17 25 -109 148 -125 166 -5 7 -19 24 -29 38 -11 15 -29 37 -40 50 -12
12 -39 44 -61 70 -136 164 -411 430 -592 573 -15 13 -48 39 -73 59 -24 20 -65
50 -90 67 -25 17 -47 33 -50 36 -20 24 -331 221 -348 221 -6 0 -12 4 -14 9 -4
11 -208 121 -208 113 0 -4 -4 -2 -8 4 -4 6 -27 21 -52 32 -25 11 -85 39 -135
62 -107 50 -374 156 -415 165 -8 2 -16 4 -17 5 -2 2 -7 4 -13 5 -5 1 -11 3
-12 5 -2 1 -10 3 -18 5 -8 2 -55 16 -105 30 -138 41 -194 56 -265 71 -36 8
-74 17 -85 19 -11 3 -32 6 -47 7 -16 1 -28 5 -28 9 0 4 -7 6 -16 5 -9 -1 -48
4 -88 11 -39 8 -93 16 -120 18 -28 3 -57 7 -65 9 -9 3 -50 8 -91 11 -41 4 -93
9 -115 12 -44 5 -582 12 -587 8z m497 -2878 c17 -3 50 -8 75 -11 43 -6 63 -9
120 -22 14 -3 39 -7 55 -10 59 -10 247 -68 320 -99 172 -72 351 -164 367 -189
4 -6 8 -7 8 -2 0 5 10 0 23 -11 12 -11 32 -24 45 -28 12 -3 22 -10 22 -14 0
-4 21 -22 48 -39 26 -17 58 -41 72 -54 14 -13 45 -39 70 -59 90 -73 282 -274
320 -335 8 -13 18 -24 22 -24 5 0 8 -5 8 -11 0 -6 6 -16 13 -24 22 -23 47 -55
47 -60 0 -2 23 -39 50 -81 28 -43 61 -99 73 -126 12 -26 25 -48 29 -48 5 0 8
-4 8 -10 0 -5 14 -40 31 -77 32 -69 69 -160 74 -178 1 -5 5 -17 8 -25 13 -33
37 -111 41 -134 3 -14 7 -30 11 -35 9 -16 52 -230 60 -306 2 -16 6 -52 10 -80
11 -75 7 -460 -5 -460 0 0 -3 -16 -4 -35 -7 -69 -17 -145 -22 -162 -3 -9 -7
-25 -9 -35 -2 -10 -9 -40 -15 -68 -7 -27 -14 -59 -16 -70 -14 -80 -158 -444
-184 -465 -3 -3 -12 -21 -20 -40 -8 -19 -18 -39 -22 -45 -27 -34 -77 -115 -71
-115 4 0 -2 -7 -13 -15 -10 -8 -15 -15 -11 -15 8 0 -1 -13 -35 -51 -10 -10
-18 -22 -18 -25 0 -3 -6 -11 -12 -18 -7 -7 -22 -25 -33 -41 -33 -45 -70 -90
-77 -93 -5 -2 -8 -10 -8 -18 0 -8 -3 -14 -8 -14 -4 0 -12 -8 -17 -19 -6 -10
-29 -52 -53 -92 -23 -41 -45 -85 -49 -99 -3 -14 -9 -27 -12 -30 -12 -9 -89
-262 -97 -315 -1 -11 -5 -33 -8 -50 -21 -112 -28 -392 -12 -500 16 -107 55
-251 90 -330 8 -16 37 -86 66 -155 29 -69 61 -144 71 -167 11 -23 19 -44 19
-47 0 -3 11 -29 24 -58 13 -29 40 -93 61 -143 21 -49 47 -109 57 -132 19 -44
40 -94 43 -103 5 -14 27 -67 35 -85 21 -46 71 -160 72 -165 0 -3 5 -16 11 -30
6 -14 9 -29 8 -33 0 -4 3 -16 9 -27 9 -17 35 -106 47 -160 38 -184 37 -444 -3
-620 -3 -14 -5 -26 -5 -27 0 -2 -6 -21 -14 -43 -8 -22 -14 -44 -15 -48 -1 -17
-24 -78 -34 -91 -6 -8 -10 -17 -10 -20 4 -16 -77 -184 -102 -212 -8 -8 -14
-20 -14 -25 0 -5 -11 -22 -25 -38 -14 -16 -25 -32 -25 -35 0 -3 -10 -18 -23
-33 -12 -15 -35 -43 -52 -63 -45 -56 -105 -115 -165 -165 -30 -25 -61 -50 -68
-57 -6 -6 -21 -15 -32 -18 -11 -3 -20 -11 -20 -16 0 -5 -10 -14 -22 -19 -13
-6 -41 -21 -63 -35 -22 -14 -51 -30 -65 -36 -14 -6 -51 -23 -82 -40 -32 -16
-58 -26 -58 -23 0 4 -7 0 -17 -7 -9 -8 -19 -13 -22 -13 -7 2 -5 2 -81 -19 -57
-16 -111 -28 -145 -33 -11 -1 -20 -3 -20 -4 0 -11 -232 -14 -885 -14 -733 0
-878 3 -952 24 -17 5 -34 7 -39 5 -4 -3 -11 0 -14 6 -4 5 -13 8 -20 5 -7 -2
-16 -2 -20 2 -4 4 -11 8 -16 8 -5 1 -10 2 -11 3 -2 2 -14 5 -28 7 -13 3 -29 9
-34 14 -6 6 -17 10 -26 10 -22 0 -192 79 -198 93 -2 4 -9 7 -15 7 -14 0 -142
86 -201 134 -73 60 -172 164 -235 246 -33 44 -61 83 -61 86 0 3 -9 19 -21 35
-26 36 -99 183 -99 198 0 6 -5 11 -10 11 -6 0 -9 3 -8 8 1 4 -11 45 -26 92
-28 85 -33 103 -42 150 -3 14 -7 32 -9 40 -28 102 -26 407 4 550 21 98 59 229
71 240 3 3 7 14 8 25 2 11 15 43 28 71 13 28 24 54 24 57 0 3 13 34 29 69 25
56 41 92 46 108 5 14 20 50 43 100 13 30 32 75 42 100 10 25 30 71 44 102 14
31 26 64 26 72 0 9 5 16 10 16 6 0 10 6 10 13 0 8 27 76 60 152 33 76 60 144
60 152 0 7 5 13 10 13 6 0 10 7 10 16 0 9 6 30 14 47 40 92 70 213 80 319 2
26 6 50 9 55 6 11 1 300 -6 343 -4 19 -9 53 -13 75 -3 22 -7 45 -8 50 -1 6 -8
37 -15 70 -8 33 -14 65 -16 70 -1 6 -7 23 -13 38 -7 16 -12 32 -12 37 0 5 -5
21 -11 37 -6 15 -9 28 -8 28 2 0 -4 14 -13 30 -8 17 -32 64 -53 105 -38 77
-105 182 -149 235 -38 45 -40 47 -66 85 -14 19 -28 37 -31 40 -6 6 -97 143
-115 175 -125 218 -243 529 -269 710 -2 11 -4 20 -5 20 -2 0 -9 35 -15 80 -2
22 -7 50 -9 62 -16 80 -29 463 -16 463 3 0 5 21 6 48 0 26 4 68 7 95 4 26 10
68 13 95 3 26 10 55 15 65 6 9 8 17 5 17 -3 0 0 15 5 33 5 17 12 46 15 62 2
17 19 75 36 130 18 55 33 102 33 105 3 9 25 65 35 85 24 52 54 121 55 125 3
11 50 105 56 110 3 3 20 32 38 65 18 33 39 67 47 76 8 8 14 21 14 27 0 7 4 12
8 12 4 0 16 14 26 32 11 17 25 39 32 47 7 9 27 34 43 56 97 128 252 283 418
416 11 9 49 36 84 60 35 23 70 49 77 56 8 7 18 11 23 8 5 -4 9 -1 9 4 0 6 7
11 15 11 8 0 15 4 15 8 0 8 258 142 282 146 7 1 31 10 53 20 38 16 173 63 205
72 53 13 108 26 125 30 11 2 31 6 45 9 64 14 78 16 130 21 30 3 71 9 90 13 37
9 445 7 495 -2z"/>
<path d="M7019 3896 c-4 -4 -22 -7 -119 -21 -14 -1 -25 -4 -25 -5 0 -2 -18 -7
-59 -15 -16 -3 -36 -10 -45 -14 -9 -5 -18 -9 -21 -9 -22 3 -222 -89 -228 -104
-2 -4 -10 -8 -18 -8 -8 0 -14 -4 -14 -10 0 -5 -6 -10 -13 -10 -7 0 -28 -12
-45 -27 -17 -16 -45 -39 -62 -52 -17 -13 -50 -45 -73 -69 -23 -25 -50 -53 -59
-64 -10 -10 -18 -21 -18 -26 0 -4 -10 -19 -22 -32 -13 -14 -32 -43 -43 -65
-11 -22 -22 -42 -26 -45 -3 -3 -8 -14 -12 -25 -3 -11 -17 -50 -30 -87 -14 -38
-24 -68 -22 -68 2 0 -1 -15 -6 -32 -8 -26 -20 -161 -20 -223 0 -5 0 -109 0
-230 1 -121 1 -227 1 -235 0 -8 0 -98 0 -200 1 -102 1 -187 0 -190 -6 -18 -6
-51 0 -55 8 -5 5 -60 -5 -74 -3 -6 -3 -11 2 -11 6 0 9 -339 3 -347 -3 -4 -3
-42 0 -45 7 -11 6 -69 -1 -74 -5 -3 -7 -10 -3 -15 3 -6 8 -37 10 -69 2 -32 11
-87 19 -122 9 -35 18 -70 19 -78 4 -20 34 -91 46 -110 6 -8 14 -24 19 -35 13
-28 80 -125 110 -158 39 -44 117 -121 133 -132 37 -26 182 -120 187 -121 3 0
37 -15 74 -32 70 -32 219 -76 294 -87 23 -3 57 -8 75 -11 39 -5 5762 -5 5798
0 14 2 39 7 55 10 17 3 44 8 62 11 18 3 44 10 58 15 14 5 29 9 33 8 4 -1 15 2
25 5 45 17 53 20 66 23 34 7 221 108 275 149 53 40 150 129 184 169 87 106
179 290 184 374 1 6 4 12 7 12 12 0 14 97 15 930 1 821 -3 945 -29 1015 -34
94 -57 147 -74 176 -12 19 -25 43 -30 54 -5 12 -16 27 -25 34 -9 7 -16 17 -16
21 0 14 -129 147 -183 189 -98 75 -270 167 -347 186 -8 2 -31 9 -50 15 -19 6
-57 16 -85 21 -27 6 -61 14 -75 17 -28 7 -5844 15 -5851 8z"/>
</g>
</svg>
