<?xml version="1.0" encoding="utf-8"?>
<!-- Generator: Adobe Illustrator 21.0.2, SVG Export Plug-In . SVG Version: 6.00 Build 0)  -->
<svg version="1.1" xmlns="http://www.w3.org/2000/svg" xmlns:xlink="http://www.w3.org/1999/xlink" x="0px" y="0px"
	 viewBox="0 0 350 350" enable-background="new 0 0 350 350" xml:space="preserve">
<g id="background">
</g>
<g id="patterns">
	<g>
		
			<rect x="77.6" y="80.6" transform="matrix(0.7071 -0.7071 0.7071 0.7071 -73.3575 102.8701)" fill="none" width="19.8" height="118.8"/>
		<polygon fill="none" points="87.5,87.5 87.5,87.5 87.5,87.5 		"/>
		
			<rect x="112.6" y="80.6" transform="matrix(0.7071 -0.7071 0.7071 0.7071 -63.1144 127.6136)" fill="none" width="19.8" height="118.8"/>
		<polygon fill="none" points="227.5,192.5 227.4,192.4 227.5,192.5 		"/>
		<polygon fill="none" points="241.5,175 157.5,91 143.5,105 227.5,189 		"/>
		<polygon fill="none" points="0,3.5 0,3.5 0,31.5 14,17.5 		"/>
		<polygon fill="none" points="206.5,175 122.5,91 108.5,105 192.5,189 		"/>
		<polygon fill="none" points="31.5,0 31.5,0 3.5,0 17.5,14 		"/>
		<polygon fill="none" points="136.5,0 108.5,0 122.5,14 		"/>
		<polygon fill="none" points="171.5,0 171.5,0 143.5,0 157.5,14 		"/>
		<path fill="none" d="M245,101.5l84-84l-14-14l-84,84L245,101.5z M315,10L315,10L315,10L315,10L315,10z"/>
		<polygon fill="none" points="206.5,0 178.5,0 192.5,14 		"/>
		<polygon fill="none" points="241.5,0 241.5,0 213.5,0 227.5,14 		"/>
		
			<rect x="252.6" y="80.6" transform="matrix(0.7071 -0.7071 0.7071 0.7071 -22.1088 226.6129)" fill="none" width="19.8" height="118.8"/>
		
			<rect x="287.6" y="80.6" transform="matrix(0.7071 -0.7071 0.7071 0.7071 -11.8556 251.3528)" fill="none" width="19.8" height="118.8"/>
		
			<rect x="217.6" y="80.6" transform="matrix(0.7071 -0.7071 0.7071 0.7071 -32.3518 201.8692)" fill="none" width="19.8" height="118.8"/>
		<polygon fill="none" points="101.5,0 101.5,0 73.5,0 87.5,14 		"/>
		<polygon fill="none" points="66.5,0 38.5,0 52.5,14 		"/>
		<polygon fill="none" points="213.5,280 283.5,350 311.5,350 227.5,266 		"/>
		<polygon fill="none" points="140,350 140,350 138.1,348.1 		"/>
		<polygon fill="none" points="0,178.5 0,178.5 0,206.5 14,192.5 		"/>
		<polygon fill="none" points="73.5,280 143.5,350 171.5,350 87.5,266 		"/>
		<polygon fill="none" points="108.5,280 178.5,350 206.5,350 122.5,266 		"/>
		<polygon fill="none" points="35,178.5 0,213.5 0,241.5 49,192.5 		"/>
		<polygon fill="none" points="69,350 70,350 69.5,349.5 		"/>
		<polygon fill="none" points="84,192.5 70,178.5 0,248.5 0,276.5 0,276.5 		"/>
		<polygon fill="none" points="38.5,280 108.5,350 136.5,350 52.5,266 		"/>
		<path fill="none" d="M210,101.5l84-84l-14-14l-84,84L210,101.5z M280,10L280,10L280,10z"/>
		<polygon fill="none" points="84,17.5 70,3.5 0,73.5 0,101.5 0,101.5 		"/>
		<path fill="none" d="M35,3.5l-35,35v28l49-49L35,3.5z M17.5,27.5L17.5,27.5L17.5,27.5L17.5,27.5L17.5,27.5z"/>
		<polygon fill="none" points="248.5,280 318.5,350 346.5,350 262.5,266 		"/>
		<polygon fill="none" points="283.5,280 350,346.5 350,318.5 297.5,266 		"/>
		<polygon fill="none" points="66.5,175 0,108.5 0,136.5 52.5,189 		"/>
		<polygon fill="none" points="143.5,280 213.5,350 241.5,350 157.5,266 		"/>
		<polygon fill="none" points="31.5,175 0,143.5 0,171.5 17.5,189 		"/>
		<polygon fill="none" points="178.5,280 248.5,350 276.5,350 192.5,266 		"/>
		<polygon fill="none" points="332.5,266 318.5,280 350,311.5 350,283.5 		"/>
		<polygon fill="none" points="105,178.5 21,262.5 35,276.5 119,192.5 		"/>
		<path fill="none" d="M119,17.5l-14-14l-84,84l14,14L119,17.5z M105,10L105,10L105,10L105,10L105,10z"/>
		<polygon fill="none" points="0,311.5 38.5,350 66.5,350 0,283.5 		"/>
		<polygon fill="none" points="0,346.5 3.5,350 31.5,350 0,318.5 		"/>
		
			<rect x="42.6" y="80.6" transform="matrix(0.7071 -0.7071 0.7071 0.7071 -83.6104 78.13)" fill="none" width="19.8" height="118.8"/>
		<path fill="none" d="M70,101.5l84-84l-14-14l-84,84L70,101.5z M140,10L140,10L140,10z"/>
		<polygon fill="none" points="315,276.5 350,241.5 350,213.5 301,262.5 		"/>
		<polygon fill="none" points="350,276.5 350,248.5 336,262.5 		"/>
		<path fill="none" d="M3.5,280l70,70h28l-84-84L3.5,280z M35,290L35,290L35,290z"/>
		<path fill="none" d="M280,178.5l-84,84l14,14l84-84L280,178.5z M280,185L280,185L280,185z"/>
		<path fill="none" d="M315,178.5l-84,84l14,14l84-84L315,178.5z M315,185L315,185L315,185L315,185L315,185z"/>
		<polygon fill="none" points="280,276.5 350,206.5 350,178.5 266,262.5 		"/>
		
			<rect x="150.6" y="217.6" transform="matrix(0.7071 -0.7071 0.7071 0.7071 -99.3558 215.1245)" fill="none" width="118.8" height="19.8"/>
		
			<rect x="80.6" y="217.6" transform="matrix(0.7071 -0.7071 0.7071 0.7071 -119.8541 165.6383)" fill="none" width="118.8" height="19.8"/>
		
			<rect x="115.6" y="217.6" transform="matrix(0.7071 -0.7071 0.7071 0.7071 -109.6031 190.3788)" fill="none" width="118.8" height="19.8"/>
		<polygon fill="none" points="140,178.5 56,262.5 70,276.5 154,192.5 		"/>
		<polygon fill="none" points="280,101.5 350,31.5 350,3.5 266,87.5 		"/>
		<path fill="none" d="M175,101.5l84-84l-14-14l-84,84L175,101.5z M227.5,27.5L227.5,27.5L227.5,27.5L227.5,27.5L227.5,27.5z"/>
		<polygon fill="none" points="311.5,0 311.5,0 283.5,0 297.5,14 		"/>
		<polygon fill="none" points="346.5,0 318.5,0 332.5,14 		"/>
		
			<rect x="115.6" y="42.6" transform="matrix(0.7071 -0.7071 0.7071 0.7071 14.1367 139.123)" fill="none" width="118.8" height="19.8"/>
		<polygon fill="none" points="318.5,105 350,136.5 350,108.5 332.5,91 		"/>
		<polygon fill="none" points="315,101.5 350,66.5 350,38.5 301,87.5 		"/>
		<polygon fill="none" points="350,101.5 350,73.5 336,87.5 		"/>
		<polygon fill="none" points="194,16 193.9,16.1 194.1,15.9 		"/>
		<polygon fill="none" points="276.5,0 248.5,0 262.5,14 		"/>
		<polygon fill="none" points="283.5,105 350,171.5 350,143.5 297.5,91 		"/>
		
			<rect x="80.6" y="42.6" transform="matrix(0.7071 -0.7071 0.7071 0.7071 3.8859 114.3812)" fill="none" width="118.8" height="19.8"/>
		
			<line opacity="0.1" fill="none" stroke="#000000" stroke-width="0" stroke-linecap="round" stroke-linejoin="round" x1="280" y1="10" x2="280" y2="10"/>
		
			<rect x="315" y="10" transform="matrix(0.7071 -0.7071 0.7071 0.7071 85.1853 225.6721)" opacity="8.000000e-02" width="0" height="0"/>
		<polygon opacity="8.000000e-02" points="227.5,27.5 227.5,27.5 227.5,27.5 227.5,27.5 		"/>
		<polygon opacity="0.1" points="227.5,27.5 227.5,27.5 227.5,27.5 227.5,27.5 		"/>
		<polygon opacity="0.1" points="227.5,27.5 227.5,27.5 227.5,27.5 227.5,27.5 		"/>
		
			<line opacity="0.1" fill="none" stroke="#000000" stroke-width="0" stroke-linecap="round" stroke-linejoin="round" x1="140" y1="10" x2="140" y2="10"/>
		<polygon opacity="8.000000e-02" points="105,10 105,10 105,10 105,10 		"/>
		<polygon opacity="8.000000e-02" points="105,10 105,10 105,10 105,10 		"/>
		<polygon opacity="0.1" points="105,10 105,10 105,10 105,10 		"/>
		<polygon opacity="8.000000e-02" points="17.5,27.5 17.5,27.5 17.5,27.5 17.5,27.5 		"/>
		<polygon opacity="0.1" points="17.5,27.5 17.5,27.5 17.5,27.5 17.5,27.5 		"/>
		<polygon opacity="0.1" points="17.5,27.5 17.5,27.5 17.5,27.5 17.5,27.5 		"/>
		
			<line opacity="0.1" fill="none" stroke="#000000" stroke-width="0" stroke-linecap="round" stroke-linejoin="round" x1="280" y1="185" x2="280" y2="185"/>
		
			<rect x="315" y="185" transform="matrix(0.7071 -0.7071 0.7071 0.7071 -38.552 276.9257)" opacity="8.000000e-02" width="0" height="0"/>
		
			<rect x="315" y="185" transform="matrix(0.7071 -0.7071 0.7071 0.7071 -38.552 276.9257)" opacity="8.000000e-02" width="0" height="0"/>
		<rect x="315" y="185" transform="matrix(0.7071 -0.7071 0.7071 0.7071 -38.552 276.9257)" opacity="0.1" width="0" height="0"/>
		
			<line opacity="8.000000e-02" fill="none" stroke="#000000" stroke-width="0" stroke-linecap="round" stroke-linejoin="round" x1="35" y1="290" x2="35" y2="290"/>
		
			<line opacity="0.1" fill="none" stroke="#000000" stroke-width="0" stroke-linecap="round" stroke-linejoin="round" x1="35" y1="290" x2="35" y2="290"/>
		<path opacity="0.1" d="M332.5,266l17.5,17.5v-7l-14-14l14-14v-7l-35,35l-14-14l49-49v-7l-70,70l-14-14l84-84v-7L283.5,105l14-14
			l52.5,52.5v-7L318.5,105l14-14l17.5,17.5v-7l-14-14l14-14v-7l-35,35l-14-14l49-49v-7l-70,70l-14-14l84-84V0h-3.5l-14,14l-14-14h-7
			l0,0l-14,14l-14-14h-7l-14,14l-14-14h-7l0,0l-14,14l-14-14h-7l-14,14l-14-14h-7l0,0l-14,14l-14-14h-7l-14,14l-14-14h-7l0,0l-14,14
			l-14-14h-7l-14,14l-14-14h-7l0,0l-14,14L3.5,0H0v3.5v0l14,14l-14,14v7l35-35l14,14l-49,49v7l70-70l14,14l-84,84v0v7L66.5,175
			l-14,14L0,136.5v7L31.5,175l-14,14L0,171.5v7v0l14,14l-14,14v7l35-35l14,14l-49,49v7l70-70l14,14l-84,84v0v7L66.5,350H69l0.5-0.5
			L70,350h3.5l-70-70l14-14l84,84h7l-70-70l14-14l84,84h3.5l-1.9-1.9l1.9,1.9h3.5l-70-70l14-14l84,84h7l-70-70l14-14l84,84h7l-70-70
			l14-14l84,84h7l-70-70l14-14l84,84h7l-70-70l14-14l84,84h7l-70-70l14-14l84,84h3.5v-3.5L283.5,280l14-14l52.5,52.5v-7L318.5,280
			L332.5,266z M346.5,175l-14,14l-84-84l14-14L346.5,175z M143.5,105l14-14l84,84l-14,14L143.5,105z M227.5,192.5L227.5,192.5
			l-0.1-0.1L227.5,192.5z M73.5,105l14-14l84,84l-14,14L73.5,105z M136.5,175l-14,14l-84-84l14-14L136.5,175z M87.5,87.5L87.5,87.5
			L87.5,87.5L87.5,87.5z M108.5,105l14-14l84,84l-14,14L108.5,105z M178.5,105l14-14l84,84l-14,14L178.5,105z M213.5,105l14-14
			l84,84l-14,14L213.5,105z M315,3.5l14,14l-84,84l-14-14L315,3.5z M280,3.5l14,14l-84,84l-14-14L280,3.5z M245,3.5l14,14l-84,84
			l-14-14L245,3.5z M194,16l0.1-0.1L194,16L194,16z M210,3.5l14,14l-84,84l-14-14L210,3.5z M175,3.5l14,14l-84,84l-14-14L175,3.5z
			 M140,3.5l14,14l-84,84l-14-14L140,3.5z M105,3.5l14,14l-84,84l-14-14L105,3.5z M3.5,105l14-14l84,84l-14,14L3.5,105z M35,276.5
			l-14-14l84-84l14,14L35,276.5z M70,276.5l-14-14l84-84l14,14L70,276.5z M105,276.5l-14-14l84-84l14,14L105,276.5z M140,276.5
			l-14-14l84-84l14,14L140,276.5z M175,276.5l-14-14l84-84l14,14L175,276.5z M210,276.5l-14-14l84-84l14,14L210,276.5z M245,276.5
			l-14-14l84-84l14,14L245,276.5z"/>
		<polygon opacity="0.1" points="0,350 3.5,350 0,346.5 		"/>
		<polygon opacity="0.1" points="0,318.5 31.5,350 38.5,350 0,311.5 		"/>
	</g>
	<g>
		<defs>
			<rect id="SVGID_13_" x="-53" y="454.6" width="450" height="450"/>
		</defs>
		<clipPath id="SVGID_2_">
			<use xlink:href="#SVGID_13_"  overflow="visible"/>
		</clipPath>
		<g clip-path="url(#SVGID_2_)">
			<g>
				
					<rect x="358.6" y="330.1" transform="matrix(0.7071 -0.7071 0.7071 0.7071 -179.9752 384.7966)" fill="none" width="31.8" height="159.1"/>
				<path opacity="0.1" d="M329.5,342.1L307,364.6l112.5,112.5l22.5-22.5L329.5,342.1z M311.5,364.6l18-18l108,108l-18,18
					L311.5,364.6z"/>
			</g>
			
				<rect x="313.6" y="330.1" transform="matrix(0.7071 -0.7071 0.7071 0.7071 -193.1541 352.9619)" fill="none" width="31.8" height="159.1"/>
			<path opacity="8.000000e-02" d="M397,454.6L284.5,342.1L262,364.6l112.5,112.5L397,454.6z M284.5,346.6l108,108l-18,18l-108-108
				L284.5,346.6z"/>
			
				<rect x="268.6" y="330.1" transform="matrix(0.7071 -0.7071 0.7071 0.7071 -206.3371 321.1531)" fill="none" width="31.8" height="159.1"/>
			<path opacity="0.1" d="M239.5,342.1L217,364.6l112.5,112.5l22.5-22.5L239.5,342.1z M221.5,364.6l18-18l108,108l-18,18
				L221.5,364.6z"/>
			
				<rect x="223.6" y="330.1" transform="matrix(0.7071 -0.7071 0.7071 0.7071 -219.5074 289.3391)" fill="none" width="31.8" height="159.1"/>
			<path opacity="8.000000e-02" d="M307,454.6L194.5,342.1L172,364.6l112.5,112.5L307,454.6z M194.5,346.6l108,108l-18,18l-108-108
				L194.5,346.6z"/>
			
				<rect x="178.6" y="330.1" transform="matrix(0.7071 -0.7071 0.7071 0.7071 -232.6989 257.5096)" fill="none" width="31.8" height="159.1"/>
			<path opacity="0.1" d="M149.5,342.1L127,364.6l112.5,112.5l22.5-22.5L149.5,342.1z M131.5,364.6l18-18l108,108l-18,18
				L131.5,364.6z"/>
			
				<rect x="133.6" y="330.1" transform="matrix(0.7071 -0.7071 0.7071 0.7071 -245.8692 225.6957)" fill="none" width="31.8" height="159.1"/>
			<path opacity="8.000000e-02" d="M217,454.6L104.5,342.1L82,364.6l112.5,112.5L217,454.6z M104.5,346.6l108,108l-18,18l-108-108
				L104.5,346.6z"/>
			
				<rect x="88.6" y="330.1" transform="matrix(0.7071 -0.7071 0.7071 0.7071 -259.0607 193.8662)" fill="none" width="31.8" height="159.1"/>
			<path opacity="0.1" d="M59.5,342.1L37,364.6l112.5,112.5l22.5-22.5L59.5,342.1z M41.5,364.6l18-18l108,108l-18,18L41.5,364.6z"/>
			
				<rect x="43.6" y="330.1" transform="matrix(0.7071 -0.7071 0.7071 0.7071 -272.231 162.0522)" fill="none" width="31.8" height="159.1"/>
			<path opacity="8.000000e-02" d="M127,454.6L14.5,342.1L-8,364.6l112.5,112.5L127,454.6z M14.5,346.6l108,108l-18,18l-108-108
				L14.5,346.6z"/>
			
				<rect x="-1.4" y="330.1" transform="matrix(0.7071 -0.7071 0.7071 0.7071 -285.4139 130.2434)" fill="none" width="31.8" height="159.1"/>
			<path opacity="0.1" d="M-30.5,342.1L-53,364.6L59.5,477.1L82,454.6L-30.5,342.1z M-48.5,364.6l18-18l108,108l-18,18L-48.5,364.6z
				"/>
			
				<rect x="-46.4" y="330.1" transform="matrix(0.7071 -0.7071 0.7071 0.7071 -298.5929 98.4087)" fill="none" width="31.8" height="159.1"/>
			<path opacity="8.000000e-02" d="M37,454.6L-75.5,342.1L-98,364.6L14.5,477.1L37,454.6z M-75.5,346.6l108,108l-18,18l-108-108
				L-75.5,346.6z"/>
		</g>
	</g>
</g>
</svg>
