<?xml version="1.0" encoding="UTF-8"?>
<svg width="57px" height="31px" viewBox="0 0 57 31" version="1.1" xmlns="http://www.w3.org/2000/svg" xmlns:xlink="http://www.w3.org/1999/xlink">
    <!-- Generator: Sketch 42 (36781) - http://www.bohemiancoding.com/sketch -->
    <title>Group 4</title>
    <desc>Created with Sketch.</desc>
    <defs></defs>
    <g id="Assets" stroke="none" stroke-width="1" fill="none" fill-rule="evenodd">
        <g id="Artboard" transform="translate(-142.000000, -137.000000)">
            <g id="Group-4" transform="translate(142.000000, 137.000000)">
                <rect id="Rectangle" fill="#1E0C1C" x="0" y="13" width="57" height="6"></rect>
                <g id="Group-2" transform="translate(20.000000, 0.000000)" fill="#B68000">
                    <path d="M3.17039505,24.9063126 L11.8124033,24.9063126 C12.7684985,24.9063126 13.5436195,25.5752515 13.5436195,26.4006701 L13.5436195,28.8055784 C13.5436195,29.630997 12.7684985,30.299936 11.8124033,30.299936 L3.17039505,30.299936 C2.21415915,30.299936 1.43917886,29.630997 1.43917886,28.8055784 L1.43917886,26.4006701 C1.43917886,25.5752515 2.21415915,24.9063126 3.17039505,24.9063126" id="Fill-2088"></path>
                    <path d="M9.90457552,12.7849749 L10.5955422,14.4186947 C11.2307811,15.9203233 10.143529,17.590853 8.53094512,17.590853 L6.45185327,17.590853 C4.83912871,17.590853 3.75187654,15.9203233 4.38711551,14.4186947 L5.07808214,12.7849749 C5.37417049,12.0848309 5.22682995,11.0299189 4.74076096,10.4486873 C4.21528858,9.8203452 3.896684,9.01098358 3.896684,8.12133717 C3.896684,6.11012732 5.50631258,4.48186079 7.4913992,4.48155783 C9.47634508,4.48186079 11.0859737,6.11012732 11.0859737,8.12133717 C11.0859737,9.01098358 10.7673691,9.8203452 10.2418967,10.4486873 C9.75582772,11.0299189 9.60848717,12.0848309 9.90457552,12.7849749 Z M14.7779308,17.8894215 L13.0375674,13.775356 C12.6887066,12.9506948 12.8225374,12.0196941 13.3276045,11.2825888 C14.1229901,10.1217919 14.5902018,8.7134754 14.5902018,7.19306316 C14.5902018,3.22078359 11.411896,0.000908884468 7.4913992,1.0658141e-14 C3.57076166,0.000908884468 0.39245589,3.22078359 0.39245589,7.19306316 C0.39245589,8.7134754 0.859667541,10.1217919 1.65505316,11.2825888 C2.16012021,12.0196941 2.29395102,12.9506948 1.94509027,13.775356 L0.204867597,17.8894215 C-0.502282569,19.561163 0.708105207,21.4208921 2.50321118,21.4208921 L12.4794465,21.4208921 C14.2746932,21.4208921 15.485081,19.561163 14.7779308,17.8894215 L14.7779308,17.8894215 Z" id="Fill-2089"></path>
                </g>
            </g>
        </g>
    </g>
</svg>