<?xml version="1.0" encoding="UTF-8"?>
<svg width="146px" height="33px" viewBox="0 0 146 33" version="1.1" xmlns="http://www.w3.org/2000/svg" xmlns:xlink="http://www.w3.org/1999/xlink">
    <!-- Generator: Sketch 42 (36781) - http://www.bohemiancoding.com/sketch -->
    <title>LOGO</title>
    <desc>Created with Sketch.</desc>
    <defs>
        <polygon id="path-1" points="0 0.0412154702 0 32.8974369 14.769858 32.8974369 14.769858 0.0412154702 9.2378825e-21 0.0412154702"></polygon>
    </defs>
    <g id="Assets" stroke="none" stroke-width="1" fill="none" fill-rule="evenodd">
        <g id="Artboard" transform="translate(-14.000000, -15.000000)">
            <g id="LOGO" transform="translate(14.000000, 15.000000)">
                <path d="M97.2184411,27.0947368 L107.200537,27.0947368 C108.305014,27.0947368 109.200228,27.8186995 109.200228,28.7117396 L109.200228,31.3138814 C109.200228,32.2066923 108.305014,32.9308841 107.200537,32.9308841 L97.2184411,32.9308841 C96.1141917,32.9308841 95.21875,32.2066923 95.21875,31.3138814 L95.21875,28.7117396 C95.21875,27.8186995 96.1141917,27.0947368 97.2184411,27.0947368" id="Fill-4176" fill="#D8D8D8"></path>
                <path d="M104.940581,13.8334147 L105.738776,15.6009375 C106.472443,17.2259588 105.216416,19.0333454 103.353961,19.0333454 L102.153147,19.0333454 L100.952332,19.0333454 C99.08965,19.0333454 97.8338503,17.2259588 98.5675172,15.6009375 L99.3654851,13.8334147 C99.7076661,13.075774 99.5374844,11.9343873 98.9760441,11.305502 C98.3689341,10.6255269 98.0010782,9.74989865 98.0010782,8.78721157 C98.0010782,6.61119969 99.8603524,4.84940444 102.153147,4.84917534 C104.445941,4.84940444 106.305215,6.61119969 106.305215,8.78721157 C106.305215,9.74989865 105.937132,10.6255269 105.330022,11.305502 C104.768809,11.9343873 104.598627,13.075774 104.940581,13.8334147 M110.569526,19.3563794 L108.559384,14.9049253 C108.15631,14.0125726 108.311041,13.0052106 108.894294,12.2077061 C109.813138,10.9517683 110.352766,9.42801018 110.352766,7.783057 C110.352766,3.48487225 106.681705,0.00114551057 102.153147,0 C97.6245882,0.00114551057 93.9535271,3.48487225 93.9535271,7.783057 C93.9535271,9.42801018 94.4931551,10.9517683 95.4117725,12.2077061 C95.9952524,13.0052106 96.1497564,14.0125726 95.7469099,14.9049253 L93.7365398,19.3563794 C92.9199406,21.1651406 94.3179748,23.1773444 96.3915098,23.1773444 L102.153147,23.1773444 L107.914784,23.1773444 C109.988319,23.1773444 111.386353,21.1651406 110.569526,19.3563794" id="Fill-4178" fill="#D8D8D8"></path>
                <g id="Group-4182">
                    <mask id="mask-2" fill="white">
                        <use xlink:href="#path-1"></use>
                    </mask>
                    <g id="Clip-4181"></g>
                    <path d="M5.31739245,27.6129675 C5.31739245,27.8718529 5.62390117,28.0759829 5.9919843,28.0679643 C7.22301786,28.0411594 8.64286443,27.779983 8.64286443,25.5663984 L8.64286443,17.8775023 C8.64286443,11.1274667 8.84417409,7.95371517 8.34021831,5.94219861 C8.09164859,4.98638459 7.0255708,4.90711526 5.98221419,4.88420505 C5.61799367,4.87641558 5.31739245,5.08283658 5.31739245,5.33874364 L5.31739245,27.6129675 Z M-4.54423612e-05,32.2147126 L-4.54423612e-05,0.723939769 C-4.54423612e-05,0.34683769 0.322140898,0.0412154702 0.719307135,0.0412154702 L5.14698359,0.0412154702 C10.0699818,0.0412154702 12.009689,0.935630122 13.3522835,3.43857071 C14.620807,5.94219861 14.769858,10.0545816 14.769858,16.4916636 C14.769858,22.9287457 14.769858,28.0248931 13.6510671,29.9919639 C12.6813271,31.7352019 10.8906708,32.8974369 5.96767263,32.8974369 L0.719307135,32.8974369 C0.322140898,32.8974369 -4.54423612e-05,32.5918147 -4.54423612e-05,32.2147126 L-4.54423612e-05,32.2147126 Z" id="Fill-4180" fill="#D8D8D8" mask="url(#mask-2)"></path>
                </g>
                <path d="M61.3484607,27.5717521 C61.3484607,27.8306375 61.6549694,28.0347674 62.0232797,28.0267489 C63.2540861,27.9999439 64.6739327,27.7387675 64.6739327,25.5251829 L64.6739327,17.8362869 C64.6739327,11.0862513 64.8752423,7.9124997 64.3715138,5.90098314 C64.1227168,4.94516912 63.056639,4.86589979 62.0132824,4.84298958 C61.6490619,4.83520011 61.3484607,5.04162111 61.3484607,5.29752817 L61.3484607,27.5717521 Z M56.03125,32.1734971 L56.03125,0.682724299 C56.03125,0.30562222 56.3532091,3.55271368e-15 56.7506026,3.55271368e-15 L61.1780518,3.55271368e-15 C66.10105,3.55271368e-15 68.0407572,0.894414652 69.3833518,3.39735524 C70.6518753,5.90098314 70.8011534,10.0133661 70.8011534,16.4504482 C70.8011534,22.8875303 70.8011534,27.9836777 69.6821353,29.9507484 C68.7123953,31.6939864 66.9219663,32.8562214 61.9987409,32.8562214 L56.7506026,32.8562214 C56.3532091,32.8562214 56.03125,32.5505992 56.03125,32.1734971 L56.03125,32.1734971 Z" id="Fill-4183" fill="#D8D8D8"></path>
                <path d="M19.6256026,-3.55271368e-15 L30.5694864,-3.55271368e-15 C30.9666526,-3.55271368e-15 31.288839,0.30562222 31.288839,0.682724299 L31.288839,4.27939838 C31.288839,4.65627136 30.9666526,4.96212268 30.5694864,4.96212268 L25.8171243,4.96212268 C25.419958,4.96212268 25.0977717,5.2677449 25.0977717,5.64484698 L25.0977717,12.9066967 C25.0977717,13.2837988 25.419958,13.589421 25.8171243,13.589421 L28.8538101,13.589421 C29.2509763,13.589421 29.5731626,13.8950432 29.5731626,14.2721453 L29.5731626,18.1815437 C29.5731626,18.5586458 29.2509763,18.864268 28.8538101,18.864268 L25.8171243,18.864268 C25.419958,18.864268 25.0977717,19.1698903 25.0977717,19.5469923 L25.0977717,27.2113744 C25.0977717,27.5884765 25.419958,27.8940987 25.8171243,27.8940987 L30.5694864,27.8940987 C30.9666526,27.8940987 31.288839,28.199721 31.288839,28.576823 L31.288839,32.1734971 C31.288839,32.5505992 30.9666526,32.8562214 30.5694864,32.8562214 L19.6256026,32.8562214 C19.2282091,32.8562214 18.90625,32.5505992 18.90625,32.1734971 L18.90625,0.682724299 C18.90625,0.30562222 19.2282091,-3.55271368e-15 19.6256026,-3.55271368e-15" id="Fill-4185" fill="#D8D8D8"></path>
                <path d="M44.6167761,19.5240821 L43.1310381,19.5240821 C42.8040803,19.5240821 42.5471038,19.2271658 42.5734604,18.8803052 L43.2921313,9.47635073 C43.3480254,8.74872241 44.3479846,8.74597319 44.4072868,9.4731433 L45.1741267,18.8773269 C45.2025282,19.2251039 44.94487,19.5240821 44.6167761,19.5240821 M52.334934,32.0772742 L47.6164264,0.586501411 C47.5659854,0.249950406 47.2624304,-3.55271368e-15 46.9041174,-3.55271368e-15 L40.9159502,-3.55271368e-15 C40.5583189,-3.55271368e-15 40.2549911,0.2492631 40.2040957,0.585126798 L35.4137892,32.0758996 C35.3510787,32.487367 35.6875794,32.8562214 36.1256437,32.8562214 L40.6969181,32.8562214 C41.0620474,32.8562214 41.369465,32.5964196 41.4114992,32.2520792 L42.0838189,26.7547739 C42.1260803,26.4104335 42.4332707,26.1508608 42.7984,26.1508608 L44.9482782,26.1508608 C45.3134075,26.1508608 45.6208251,26.4104335 45.6628593,26.7547739 L46.3358607,32.2523083 C46.3778948,32.5964196 46.6853124,32.8562214 47.0502146,32.8562214 L51.6226249,32.8562214 C52.0602349,32.8562214 52.3965084,32.4885125 52.334934,32.0772742" id="Fill-4187" fill="#D8D8D8"></path>
                <path d="M80.1599848,27.6189471 C80.1599848,27.8741669 80.4944406,28.0810461 80.902513,28.0737148 C81.4321437,28.0640925 82.0640197,28.0198758 82.4227872,27.8496529 C83.3282262,27.3579998 83.6679079,25.8381364 83.6679079,23.0217841 C83.6679079,20.2503358 83.554302,18.6408935 82.4227872,18.1936862 C81.9842684,18.0207141 81.4044239,17.9781011 80.8961511,17.9693952 C80.4908052,17.9627512 80.1599848,18.1705468 80.1599848,18.4241629 L80.1599848,27.6189471 Z M80.1599848,13.5543683 C80.1599848,13.8187522 80.5182978,14.0240277 80.9400029,14.0077614 C81.4993984,13.986684 82.1283207,13.9255138 82.4227872,13.7511671 C83.3282262,13.2595139 83.6679079,12.0077 83.6679079,9.63855502 C83.6679079,7.34432646 83.3495841,6.09801096 82.50731,5.57497083 C82.4520975,5.54083462 82.3896143,5.51219685 82.3216779,5.48859934 C81.9006545,5.34289039 81.4062416,5.2890514 80.9363676,5.26934861 C80.5160257,5.25170775 80.1599848,5.46041978 80.1599848,5.72388721 L80.1599848,13.5543683 Z M74.59375,32.1734971 L74.59375,0.682724299 C74.59375,0.30562222 74.9157091,3.55271368e-15 75.3131026,3.55271368e-15 L80.0395626,3.55271368e-15 C83.1719045,3.55271368e-15 84.9625608,0.626136077 86.4542063,1.92239584 C88.0208317,3.35290943 88.9907989,5.54312564 88.9907989,8.71710632 C88.9907989,10.2601091 88.8458377,11.8466412 88.4120904,12.9192973 C88.399821,12.9497679 88.3864155,12.9779474 88.3709651,13.0068143 C87.9837961,13.7291733 87.5109684,14.4249564 86.715727,14.9878603 C86.3237867,15.2653029 86.3587773,15.8300396 86.7588973,16.0964854 C87.6152586,16.6664915 88.3489255,17.385643 88.8415207,18.7302433 C89.2146025,19.7584536 89.3636534,21.9488989 89.3636534,23.5581121 C89.3636534,26.016836 88.8415207,28.967213 88.1698826,30.0398691 C87.4989261,31.1129834 85.9323007,32.8562214 82.7249789,32.8562214 L75.3131026,32.8562214 C74.9157091,32.8562214 74.59375,32.5505992 74.59375,32.1734971 L74.59375,32.1734971 Z" id="Fill-4189" fill="#D8D8D8"></path>
                <path d="M116.563103,3.55271368e-15 L121.315919,3.55271368e-15 C121.713313,3.55271368e-15 122.035272,0.30562222 122.035272,0.682724299 L122.035272,27.7032567 C122.035272,28.0803588 122.357458,28.385981 122.754624,28.385981 L127.73079,28.385981 C128.127956,28.385981 128.450143,28.6916032 128.450143,29.0687053 L128.450143,32.1734971 C128.450143,32.5505992 128.127956,32.8562214 127.73079,32.8562214 L116.563103,32.8562214 C116.165709,32.8562214 115.84375,32.5505992 115.84375,32.1734971 L115.84375,0.682724299 C115.84375,0.30562222 116.165709,3.55271368e-15 116.563103,3.55271368e-15" id="Fill-4191" fill="#D8D8D8"></path>
                <path d="M130.28125,4.27939838 L130.28125,0.682724299 C130.28125,0.30562222 130.603209,3.55271368e-15 131.000603,3.55271368e-15 L144.853706,3.55271368e-15 C145.250873,3.55271368e-15 145.573059,0.30562222 145.573059,0.682724299 L145.573059,4.27939838 C145.573059,4.65650046 145.250873,4.96212268 144.853706,4.96212268 L141.742268,4.96212268 C141.344874,4.96212268 141.022915,5.2677449 141.022915,5.64484698 L141.022915,32.1734971 C141.022915,32.5505992 140.700729,32.8562214 140.303563,32.8562214 L135.550746,32.8562214 C135.153353,32.8562214 134.831394,32.5505992 134.831394,32.1734971 L134.831394,5.64484698 C134.831394,5.2677449 134.509207,4.96212268 134.112041,4.96212268 L131.000603,4.96212268 C130.603209,4.96212268 130.28125,4.65650046 130.28125,4.27939838" id="Fill-4193" fill="#D8D8D8"></path>
            </g>
        </g>
    </g>
</svg>