<?xml version="1.0" encoding="UTF-8"?>
<svg width="67px" height="71px" viewBox="0 0 67 71" version="1.1" xmlns="http://www.w3.org/2000/svg" xmlns:xlink="http://www.w3.org/1999/xlink">
    <!-- Generator: Sketch 42 (36781) - http://www.bohemiancoding.com/sketch -->
    <title>Shape</title>
    <desc>Created with Sketch.</desc>
    <defs></defs>
    <g id="Assets" stroke="none" stroke-width="1" fill="none" fill-rule="evenodd">
        <g id="Artboard" transform="translate(-14.000000, -66.000000)" fill-rule="nonzero" fill="#B68000">
            <path d="M79.066747,95.1772369 C78.572719,94.2779284 78.1053152,93.4318684 77.9337366,92.6035579 C77.797657,91.946826 77.8952793,91.088933 78.0017764,90.1777915 C78.1585637,88.8022044 78.3390171,87.246164 77.7828658,85.7285809 C77.2267144,84.213956 76.0641215,83.1223611 75.0405664,82.157971 C74.3749598,81.5337799 73.7478104,80.9421295 73.4401522,80.3800617 C73.0348717,79.643457 72.8514601,78.7323155 72.6562155,77.7649672 C72.3870146,76.4278374 72.1089389,75.0492921 71.1889226,73.9429059 C69.9760394,72.4844878 68.2809612,71.8514219 66.787044,71.2952706 C66.0474811,71.0201532 65.3434172,70.7568688 64.8789717,70.4492106 C64.1867408,69.9877233 63.5033846,69.3043672 62.8407362,68.6446771 C61.5213559,67.3223385 60.1457689,66.0266243 58.3353188,66 C57.6785869,66.0177495 57.1106026,66.4644455 56.9419823,67.0975114 C53.0666725,81.5811119 42.3755507,89.3110237 33.7847876,95.5263106 C27.6345823,99.9755212 22.6528863,103.605296 21.61454,108.486411 C21.0702217,108.155087 20.4134898,107.891803 19.6502608,107.696558 C19.1887736,106.667087 18.1622602,105.939357 16.9582517,105.939357 C15.3252968,105.939357 14,107.264654 14,108.897608 C14,110.530563 15.3252968,111.85586 16.9582517,111.85586 C17.9433496,111.85586 18.7716601,111.344083 19.3100619,110.60452 C21.6293312,111.347041 21.7417448,113.284696 21.4429614,117.488372 C21.2003847,120.916985 20.9518916,125.099953 24.3538811,127.434014 L24.3538811,132.563622 C24.3538811,133.3801 25.0165295,134.042748 25.833007,134.042748 L27.3121328,134.042748 L27.3121328,135.521874 C27.3121328,136.338352 27.9747812,137.001 28.7912587,137.001 C29.6077362,137.001 30.2703846,136.338352 30.2703846,135.521874 L30.2703846,134.042748 L56.8946502,134.042748 L56.8946502,135.521874 C56.8946502,136.338352 57.5572986,137.001 58.3737761,137.001 C59.1902536,137.001 59.852902,136.338352 59.852902,135.521874 L59.852902,134.042748 L61.3320278,134.042748 C62.1485053,134.042748 62.8111537,133.3801 62.8111537,132.563622 L62.8111537,123.688867 C62.8111537,122.87239 62.1485053,122.209741 61.3320278,122.209741 L45.0616433,122.209741 L45.0616433,119.25149 L52.4572726,119.25149 C53.2737501,119.25149 53.9363985,118.588841 53.9363985,117.772364 C53.9363985,116.955886 53.2737501,116.293238 52.4572726,116.293238 L34.7077622,116.293238 C33.8912847,116.293238 33.2286363,116.955886 33.2286363,117.772364 C33.2286363,118.588841 33.8912847,119.25149 34.7077622,119.25149 L42.1033915,119.25149 L42.1033915,122.209741 L25.833007,122.209741 C25.2886886,122.209741 24.8301596,122.517399 24.57575,122.958179 C24.188219,121.63584 24.2414675,119.905263 24.3952966,117.698407 C24.4307956,117.18663 24.4692529,116.648228 24.4929189,116.100951 C25.7058021,116.74585 27.1168882,117.006176 28.5693898,117.006176 C30.3206748,117.006176 32.1104171,116.657103 33.625042,116.242948 C33.6605411,116.234073 33.6871653,116.207449 33.7226643,116.192657 C35.1130427,115.950081 36.186888,114.793404 36.186888,113.334986 C36.186888,111.702031 34.8615913,110.376734 33.2286363,110.376734 C31.5956813,110.376734 30.2703846,111.702031 30.2703846,113.334986 C30.2703846,113.536147 30.3472991,113.710684 30.3857564,113.900012 C28.1996083,114.201754 26.4335321,113.98876 25.4721002,113.252155 C24.7236626,112.684171 24.3597976,111.743447 24.3597976,110.379693 C24.3597976,108.288209 25.4898498,106.380136 27.3476318,104.466147 C29.1817479,104.528271 31.427061,104.442481 34.0273643,104.333026 C44.7658181,103.88633 61.0036619,103.214807 72.1976865,112.974079 C72.5881757,113.317237 73.1295358,113.426692 73.6235638,113.266946 C75.9280419,112.521467 76.7208534,109.720002 77.421959,107.249862 C77.5639551,106.744001 77.7059512,106.241098 77.856822,105.773695 C78.0136094,105.282625 78.3745161,104.6821 78.7531723,104.046076 C79.5341508,102.729654 80.5103739,101.096699 80.4778331,99.126503 C80.4482506,97.6887926 79.7471449,96.4108279 79.066747,95.1772369 Z M27.3121328,125.167993 L59.852902,125.167993 L59.852902,131.084497 L27.3121328,131.084497 L27.3121328,125.167993 L27.3121328,125.167993 Z M76.2120341,102.528492 C75.7623798,103.27693 75.3008925,104.05495 75.0405664,104.862553 C74.8808208,105.362498 74.7269917,105.897941 74.5731626,106.439301 C74.2477549,107.587103 73.7951424,109.187517 73.2389911,109.983287 C63.9707884,102.466369 52.0993242,101.152905 42.1359323,101.152905 C39.1835971,101.152905 36.3969239,101.268277 33.9001595,101.374774 C32.767149,101.422106 31.7021784,101.46648 30.7170806,101.496063 C32.1695822,100.351219 33.7966206,99.173835 35.5242397,97.9254528 C44.1860007,91.6598756 54.8919138,83.9181308 59.3529574,69.4345303 C59.8085282,69.7924787 60.311431,70.2953815 60.7551687,70.7391193 C61.4828987,71.463891 62.3082509,72.2892432 63.248975,72.9134343 C63.9974126,73.4104206 64.8937629,73.7447031 65.7605307,74.0671525 C66.9645391,74.5168068 68.2099631,74.978294 68.9199435,75.8332288 C69.3607231,76.3627558 69.5530094,77.3271459 69.760087,78.350701 C69.9789977,79.4393377 70.2304491,80.6729286 70.8487237,81.8029808 C71.3841672,82.7732874 72.215436,83.5572241 73.0171222,84.3115783 C73.8809317,85.1221392 74.6944509,85.8883264 75.0109839,86.7491777 C75.3245586,87.6041125 75.200312,88.6868326 75.0671907,89.8346343 C74.9399858,90.9380622 74.8068645,92.0799473 75.0405664,93.204083 C75.3038508,94.4642982 75.9250837,95.6002669 76.4782767,96.600156 C77.0078038,97.5615878 77.5077483,98.4697711 77.5195814,99.173835 C77.5402891,100.300929 76.8658077,101.433939 76.2120341,102.528492 Z M61.8438054,75.5403619 C61.1012842,75.1912882 60.2226834,75.5048628 59.8736097,76.2444258 C58.0187859,80.1611511 55.634435,83.7524687 52.5844774,87.210665 C52.0431174,87.8230231 52.1022824,88.7578306 52.7146405,89.2991907 C52.9986327,89.5476838 53.3447481,89.6689722 53.6938218,89.6689722 C54.1050188,89.6689722 54.5132576,89.5003518 54.8031662,89.1690276 C58.0424519,85.494879 60.5747154,81.6816925 62.5478693,77.5075993 C62.896943,76.7680363 62.5833683,75.8864773 61.8438054,75.5403619 Z" id="Shape"></path>
        </g>
    </g>
</svg>