<?xml version="1.0" encoding="UTF-8"?>
<svg width="143px" height="32px" viewBox="0 0 143 32" version="1.1" xmlns="http://www.w3.org/2000/svg" xmlns:xlink="http://www.w3.org/1999/xlink">
    <!-- Generator: Sketch 42 (36781) - http://www.bohemiancoding.com/sketch -->
    <title>Fill 1</title>
    <desc>Created with Sketch.</desc>
    <defs></defs>
    <g id="Assets" stroke="none" stroke-width="1" fill="none" fill-rule="evenodd" fill-opacity="0.8">
        <g id="Artboard" transform="translate(-452.000000, -25.000000)" fill="#FFFFFF">
            <g id="zagat-logo" transform="translate(452.000000, 25.000000)">
                <path d="M108.953749,20.1142857 L106.235913,10.7220779 L103.225386,20.1142857 L108.953749,20.1142857 Z M47.8128863,20.1142857 L45.1055032,10.7220779 L42.0949769,20.1142857 L47.8128863,20.1142857 Z M49.5794798,0.477922078 L60.5762635,31.0857143 L50.9697576,31.0857143 L49.7258249,26.7636364 L39.9625208,26.7636364 L38.572243,31.0857143 L28.9761904,31.0857143 L40.5374477,0.477922078 L49.5794798,0.477922078 Z M0.595707895,8.45714286 L0.595707895,0.477922078 L26.7287488,0.477922078 L26.7287488,7.38701299 L12.1569652,23.1064935 C12.0955003,23.3255065 12.1686728,23.4643117 12.3764827,23.5220779 L27.0632518,23.5220779 L27.0632518,31.0857143 L0.0103277778,31.0857143 L0.0103277778,23.6887273 L-0.000125438597,23.6887273 L14.0908102,8.72727273 C14.1368044,8.61049351 14.1020997,8.52072727 13.9862781,8.45714286 L0.595707895,8.45714286 Z M110.709889,0.477922078 L121.706673,31.0857143 L112.11062,31.0857143 L110.856234,26.7636364 L101.09293,26.7636364 L99.7131056,31.0857143 L90.1170529,31.0857143 L101.678728,0.477922078 L110.709889,0.477922078 Z M66.4614243,1.85974026 C68.4655149,0.788779221 70.8521933,0.168727273 73.6218775,0 C76.8402137,0.0378181818 79.5337985,0.64374026 81.7022137,1.81818182 C85.0656406,3.64051948 87.1671553,6.83012987 88.0055032,11.387013 L78.8907167,11.387013 C78.4282664,9.24716883 77.3135354,8.00041558 75.5456874,7.64675325 C73.161936,7.23490909 71.3117167,7.92768831 69.9946114,9.72467532 C69.9180939,9.84935065 69.8378132,9.98109091 69.7541874,10.1194805 C69.6567635,10.2582857 69.5731377,10.4033247 69.5033102,10.5558442 C69.3916699,10.7777662 69.2804477,11.012987 69.1688073,11.2623377 C69.099398,11.4148571 69.0433687,11.5810909 69.0015558,11.761039 C68.9459447,11.9551169 68.8970237,12.1487792 68.8552108,12.3428571 C68.8276143,12.5228052 68.7924915,12.7031688 68.7506787,12.8831169 C68.6950675,13.1324675 68.6461465,13.3888831 68.6043336,13.6519481 C67.8813892,18.6572468 69.1357751,22.0031169 72.3674915,23.6887273 L72.7019944,23.8545455 C76.2059126,25.0747013 78.742281,24.0216104 80.311936,20.6961039 L75.9638161,20.6961039 L75.9638161,14.4623377 L88.5076757,14.4623377 L88.5076757,31.0857143 L82.3189535,31.0857143 L82.3189535,28.0935065 C81.1197605,29.233039 79.8858629,30.1061818 78.6185149,30.7116883 C77.8566845,31.0695065 77.0831465,31.332987 76.2979009,31.5012987 C73.5127459,31.9929351 70.9483629,31.8267013 68.6043336,31.0025974 C67.9215295,30.7677922 67.2700851,30.4802078 66.6495822,30.1402597 C63.4860208,28.4089351 61.1269389,25.3165714 59.5727547,20.8623377 C58.7833278,17.6340779 58.7272985,14.6144416 59.4055032,11.8025974 C60.5541026,7.07033766 62.9060763,3.75605195 66.4614243,1.85974026 L66.4614243,1.85974026 Z M141.045123,27.5532468 C140.87829,27.2486234 140.634103,27.0134026 140.313398,26.8467532 C140.00691,26.6805195 139.693313,26.5978182 139.372608,26.5978182 C139.038106,26.5978182 138.710711,26.6805195 138.390006,26.8467532 C138.083518,27.0134026 137.846857,27.2486234 137.679187,27.5532468 C137.498138,27.872 137.407404,28.1974026 137.407404,28.5298701 C137.407404,28.8623377 137.49103,29.1881558 137.658281,29.5069091 C137.839749,29.7974026 138.083518,30.033039 138.390006,30.212987 C138.696913,30.3792208 139.024307,30.4623377 139.372608,30.4623377 C139.707111,30.4623377 140.027398,30.3792208 140.334304,30.212987 C140.640793,30.033039 140.87829,29.7974026 141.045123,29.5069091 C141.212375,29.1881558 141.296418,28.8623377 141.296418,28.5298701 C141.296418,28.1974026 141.212375,27.872 141.045123,27.5532468 L141.045123,27.5532468 Z M141.379626,27.3662338 C141.602907,27.7406753 141.714547,28.128 141.714547,28.5298701 C141.714547,28.9317403 141.602907,29.3194805 141.379626,29.6935065 C141.184778,30.0538182 140.898778,30.3380779 140.522462,30.5458701 C140.146565,30.7536623 139.763141,30.8575584 139.372608,30.8575584 C138.95448,30.8575584 138.563948,30.7536623 138.201848,30.5458701 C137.825532,30.3380779 137.533261,30.0538182 137.324196,29.6935065 C137.12893,29.3194805 137.031088,28.9317403 137.031088,28.5298701 C137.031088,28.128 137.12893,27.7406753 137.324196,27.3662338 C137.533261,26.9922078 137.825532,26.7083636 138.201848,26.5142857 C138.578582,26.3064935 138.968278,26.2025974 139.372608,26.2025974 C139.763141,26.2025974 140.139456,26.3064935 140.501556,26.5142857 C140.87829,26.7083636 141.170562,26.9922078 141.379626,27.3662338 L141.379626,27.3662338 Z M139.790737,27.8233766 C139.735126,27.7681039 139.679097,27.7261299 139.623904,27.6987013 C139.53986,27.6712727 139.400205,27.6571429 139.205775,27.6571429 L138.745415,27.6571429 L138.745415,28.4051948 L139.226263,28.4051948 C139.463342,28.4051948 139.623904,28.3707013 139.707111,28.3012987 C139.804535,28.2318961 139.853456,28.1417143 139.853456,28.0311688 C139.853456,27.9484675 139.832968,27.8790649 139.790737,27.8233766 L139.790737,27.8233766 Z M140.146565,27.6155844 C140.229772,27.7261299 140.271585,27.8512208 140.271585,27.9896104 C140.271585,28.169974 140.208866,28.3291429 140.083427,28.4679481 C139.94419,28.6063377 139.763141,28.6823896 139.53986,28.6961039 C139.637702,28.7376623 139.713801,28.7796364 139.769831,28.8207792 C139.867673,28.918026 139.986003,29.0842597 140.12524,29.3194805 L140.460161,29.8185974 L139.957989,29.8185974 L139.728436,29.4233766 C139.546968,29.105039 139.400205,28.910961 139.288983,28.8415584 C139.233372,28.7862857 139.128839,28.7584416 138.975386,28.7584416 L138.745415,28.7584416 L138.745415,29.8185974 L138.327287,29.8185974 L138.327287,27.3038961 L139.205775,27.3038961 C139.498047,27.3038961 139.707111,27.3250909 139.832968,27.3662338 C139.972205,27.4219221 140.076737,27.5046234 140.146565,27.6155844 L140.146565,27.6155844 Z M142.759869,8.45714286 L134.104187,8.45714286 L134.104187,31.0857143 L124.821731,31.0857143 L124.821731,8.45714286 L116.229187,8.45714286 L116.229187,0.477922078 L142.759869,0.477922078 L142.759869,8.45714286 Z" id="Fill-1"></path>
            </g>
        </g>
    </g>
</svg>