<?xml version="1.0" encoding="UTF-8"?>
<svg width="138px" height="34px" viewBox="0 0 138 34" version="1.1" xmlns="http://www.w3.org/2000/svg" xmlns:xlink="http://www.w3.org/1999/xlink">
    <!-- Generator: Sketch 42 (36781) - http://www.bohemiancoding.com/sketch -->
    <title>thrillist_logo_white</title>
    <desc>Created with Sketch.</desc>
    <defs></defs>
    <g id="Assets" stroke="none" stroke-width="1" fill="none" fill-rule="evenodd" opacity="0.8">
        <g id="Artboard" transform="translate(-240.000000, -24.000000)" fill-rule="nonzero" fill="#FFFFFF">
            <g id="thrillist_logo_white" transform="translate(240.000000, 24.000000)">
                <g id="Layer_1">
                    <path d="M137.444444,0 L0.54,0 C0.239266646,0.00842381356 -0.00011795619,0.254704269 -4.48036669e-14,0.555555556 L-4.48036669e-14,0.555555556 L-4.48036669e-14,3.44444444 C-0.00011795619,3.74529573 0.239266646,3.99157619 0.54,4 L133.444444,4 C133.751269,4 134,4.24873069 134,4.55555556 L134,23.4444444 L134,23.4444444 C134,23.7512693 134.248731,24 134.555556,24 L137.444444,24 C137.751269,24 138,23.7512693 138,23.4444444 L138,23.4444444 L138,0.555555556 C138,0.248730695 137.751269,1.87876042e-17 137.444444,0 Z" id="Shape"></path>
                    <path d="M0.555555556,34 L137.46,34 C137.760733,33.9915762 138.000118,33.7452957 138,33.4444444 L138,33.4444444 L138,30.5555556 C137.998918,30.2555674 137.759873,30.01062 137.46,30.0022222 L4.55555556,30.0022222 C4.24873069,30.0022222 4,29.7534915 4,29.4466667 L4,10.5577778 L4,10.5577778 C4.00059091,10.4100506 3.9423203,10.2681713 3.83806931,10.1635033 C3.73381832,10.0588353 3.59217277,9.99999882 3.44444444,10 L0.555555556,10 C0.248730695,10 3.75752084e-17,10.2487307 0,10.5555556 L0,10.5555556 L0,33.4444444 C3.75752084e-17,33.7512693 0.248730695,34 0.555555556,34 Z" id="Shape"></path>
                    <path d="M21.5555556,13.3555556 L18.4155556,13.3555556 C18.1700957,13.3555556 17.9711111,13.5545401 17.9711111,13.8 L17.9711111,23.5555556 C17.9711111,23.8010154 17.7721266,24 17.5266667,24 L14.5666667,24 C14.3212068,24 14.1222222,23.8010154 14.1222222,23.5555556 L14.1222222,13.8 C14.1222222,13.5545401 13.9232377,13.3555556 13.6777778,13.3555556 L10.5177778,13.3555556 C10.2723179,13.3555556 10.0733333,13.156571 10.0733333,12.9111111 L10.0733333,10.4444444 C10.0733333,10.1989846 10.2723179,10 10.5177778,10 L21.5555556,10 C21.8010154,10 22,10.1989846 22,10.4444444 L22,12.9111111 C22,13.156571 21.8010154,13.3555556 21.5555556,13.3555556 Z" id="Shape"></path>
                    <path d="M38.2688889,10.4444444 L38.2688889,23.5555556 C38.2688889,23.8010154 38.0699043,24 37.8244444,24 L34.9022222,24 C34.6567623,24 34.4577778,23.8010154 34.4577778,23.5555556 L34.4577778,18.9644444 C34.4577778,18.7189846 34.2587932,18.52 34.0133333,18.52 L30.2533333,18.52 C30.0078734,18.52 29.8088889,18.7189846 29.8088889,18.9644444 L29.8088889,23.5555556 C29.8088889,23.8010154 29.6099043,24 29.3644444,24 L26.4444444,24 C26.1989846,24 26,23.8010154 26,23.5555556 L26,10.4444444 C26,10.1989846 26.1989846,10 26.4444444,10 L29.3644444,10 C29.6099043,10 29.8088889,10.1989846 29.8088889,10.4444444 L29.8088889,14.7244444 C29.8088889,14.9699043 30.0078734,15.1688889 30.2533333,15.1688889 L34.0133333,15.1688889 C34.2587932,15.1688889 34.4577778,14.9699043 34.4577778,14.7244444 L34.4577778,10.4444444 C34.4577778,10.1989846 34.6567623,10 34.9022222,10 L37.8222222,10 C37.9404808,9.9994087 38.0540987,10.0459728 38.1379294,10.1293865 C38.2217602,10.2128001 38.2688904,10.3261844 38.2688889,10.4444444 L38.2688889,10.4444444 Z" id="Shape"></path>
                    <path d="M54.0288889,23.3333333 L51.5177778,19.2022222 C51.4105843,19.0143562 51.4495091,18.7771002 51.6111111,18.6333333 C52.7036704,17.6843865 53.3230511,16.3025662 53.3044444,14.8555556 C53.3044444,12.4711111 51.3511111,10.0066667 48.6377778,10.0066667 L42.7133333,10.0066667 C42.4678734,10.0066667 42.2688889,10.2056512 42.2688889,10.4511111 L42.2688889,23.5622222 C42.2688889,23.8076821 42.4678734,24.0066667 42.7133333,24.0066667 L45.6333333,24.0066667 C45.8787932,24.0066667 46.0777778,23.8076821 46.0777778,23.5622222 L46.0777778,20.1466667 C46.0777778,19.9012068 46.2767623,19.7022222 46.5222222,19.7022222 L47.2555556,19.7022222 C47.4117899,19.704738 47.5552263,19.7891123 47.6333333,19.9244444 L50,23.7777778 C50.078107,23.9131099 50.2215435,23.9974843 50.3777778,24 L53.6377778,24 C53.7976703,24.0022437 53.9464424,23.9184196 54.0273584,23.7804947 C54.1082743,23.6425698 54.1088588,23.4718089 54.0288889,23.3333333 Z M48.4733333,16.36 L46.5155556,16.36 C46.2700957,16.36 46.0711111,16.1610154 46.0711111,15.9155556 L46.0711111,13.8 C46.0711111,13.5545401 46.2700957,13.3555556 46.5155556,13.3555556 L48.3755556,13.3555556 C48.8444444,13.3555556 49.4311111,13.8888889 49.4311111,14.8533333 C49.4311111,15.8177778 48.9488889,16.3533333 48.48,16.3533333 L48.4733333,16.36 Z" id="Shape"></path>
                    <rect id="Rectangle-path" x="57.3044444" y="10.0066667" width="3.80888889" height="13.9933333" rx="1.90444444"></rect>
                    <path d="M65.1111111,23.5555556 L65.1111111,10.4444444 C65.1111111,10.1989846 65.3100957,10 65.5555556,10 L68.4755556,10 C68.7210154,10 68.92,10.1989846 68.92,10.4444444 L68.92,20.2 C68.92,20.4454599 69.1189846,20.6444444 69.3644444,20.6444444 L74.7666667,20.6444444 C75.0121266,20.6444444 75.2111111,20.843429 75.2111111,21.0888889 L75.2111111,23.5555556 C75.2111111,23.8010154 75.0121266,24 74.7666667,24 L65.5555556,24 C65.3100957,24 65.1111111,23.8010154 65.1111111,23.5555556 Z" id="Shape"></path>
                    <path d="M79.2133333,23.5555556 L79.2133333,10.4444444 C79.2133333,10.1989846 79.4123179,10 79.6577778,10 L82.5777778,10 C82.8232377,10 83.0222222,10.1989846 83.0222222,10.4444444 L83.0222222,20.2 C83.0222222,20.4454599 83.2212068,20.6444444 83.4666667,20.6444444 L88.8688889,20.6444444 C89.1143488,20.6444444 89.3133333,20.843429 89.3133333,21.0888889 L89.3133333,23.5555556 C89.3133333,23.8010154 89.1143488,24 88.8688889,24 L79.6577778,24 C79.4123179,24 79.2133333,23.8010154 79.2133333,23.5555556 Z" id="Shape"></path>
                    <rect id="Rectangle-path" x="93.2333333" y="10.0066667" width="3.80888889" height="13.9933333" rx="1.90444444"></rect>
                    <path d="M110.484444,14.1911111 C110.429627,14.2971841 110.334434,14.3767392 110.220314,14.4118532 C110.106193,14.4469672 109.982744,14.4346865 109.877778,14.3777778 C109.211111,14.0155556 107.857778,13.3533333 106.673333,13.3533333 C106.022222,13.3533333 105.582222,13.5466667 105.582222,14.02 C105.582222,14.7333333 106.54,14.8888889 108.106667,15.3911111 C110.613333,16.1822222 112.2,17.0711111 112.2,19.6377778 C112.2,22.9377778 109.56,24 107.035556,24 C105.108053,23.9673323 103.213949,23.4913349 101.5,22.6088889 C101.287565,22.4965416 101.202909,22.235682 101.308889,22.02 L102.52,19.5355556 C102.573501,19.4252946 102.670157,19.3420193 102.787119,19.3054162 C102.90408,19.2688131 103.030965,19.2821312 103.137778,19.3422222 C103.884444,19.7688889 105.542222,20.6022222 107.095556,20.6022222 C107.897778,20.6022222 108.186667,20.38 108.186667,20.0044444 C108.186667,19.2133333 106.791111,19.04 105.164444,18.48 C102.773333,17.6688889 101.72,16.6466667 101.72,14.6377778 C101.72,11.6066667 104.111111,10.0044444 106.788889,10.0044444 C108.553333,10.0044444 110.255556,10.7 111.471111,11.2888889 C111.578522,11.3417399 111.660071,11.4356852 111.697298,11.5494585 C111.734525,11.6632318 111.724283,11.7872119 111.668889,11.8933333 L110.484444,14.1911111 Z" id="Shape"></path>
                    <path d="M127.555556,13.3555556 L124.46,13.3555556 C124.21454,13.3555556 124.015556,13.5545401 124.015556,13.8 L124.015556,23.5555556 C124.015556,23.8010154 123.816571,24 123.571111,24 L120.648889,24 C120.403429,24 120.204444,23.8010154 120.204444,23.5555556 L120.204444,13.8 C120.204444,13.5545401 120.00546,13.3555556 119.76,13.3555556 L116.648889,13.3555556 C116.403429,13.3555556 116.204444,13.156571 116.204444,12.9111111 L116.204444,10.4444444 C116.204444,10.1989846 116.403429,10 116.648889,10 L127.555556,10 C127.801015,10 128,10.1989846 128,10.4444444 L128,12.9111111 C128,13.156571 127.801015,13.3555556 127.555556,13.3555556 Z" id="Shape"></path>
                </g>
            </g>
        </g>
    </g>
</svg>