<?xml version="1.0" encoding="UTF-8"?>
<svg width="118px" height="33px" viewBox="0 0 118 33" version="1.1" xmlns="http://www.w3.org/2000/svg" xmlns:xlink="http://www.w3.org/1999/xlink">
    <!-- Generator: Sketch 42 (36781) - http://www.bohemiancoding.com/sketch -->
    <title>Eater_logo</title>
    <desc>Created with Sketch.</desc>
    <defs></defs>
    <g id="Assets" stroke="none" stroke-width="1" fill="none" fill-rule="evenodd" opacity="0.8">
        <g id="Artboard" transform="translate(-668.000000, -25.000000)" fill-rule="nonzero" fill="#FFFFFF">
            <g id="Eater_logo" transform="translate(668.000000, 25.000000)">
                <g id="Group">
                    <path d="M0,12.2730549 L0,18.2766628 L0,22.1386009 C0,27.5804278 4.42368135,32.0041092 9.8655083,32.0041092 L19.7310166,32.0041092 L19.7310166,25.3334547 L9.8655083,25.3334547 C8.11005109,25.3334547 6.67061686,23.8940204 6.67061686,22.1385632 L6.67061686,18.2766252 L17.7649151,18.2766252 L17.7649151,12.2730172 L6.67065453,12.2730172 L6.67065453,6.69081098 L19.7310543,6.69081098 L19.7310543,0.0201564496 L0,0.0201564496 L0,12.2730549 Z" id="Shape"></path>
                    <path d="M72.7801545,12.2730549 L72.7801545,18.2766628 L72.7801545,22.1386009 C72.7801545,27.5804278 77.2037982,32.0041092 82.6456628,32.0041092 L92.5111711,32.0041092 L92.5111711,25.3334547 L82.6456628,25.3334547 C80.8902056,25.3334547 79.4507714,23.8940204 79.4507714,22.1385632 L79.4507714,18.2766252 L90.5451073,18.2766252 L90.5451073,12.2730172 L79.4507714,12.2730172 L79.4507714,6.69081098 L92.5111711,6.69081098 L92.5111711,0.0201564496 L72.7801545,0.0201564496 L72.7801545,12.2730549 L72.7801545,12.2730549 Z" id="Shape"></path>
                    <polygon id="Shape" points="48.0285619 6.69081098 55.6471347 6.69081098 55.6471347 32.0041092 62.3528653 32.0041092 62.3528653 6.69081098 69.9714381 6.69081098 69.9714381 0.0201564496 48.0285619 0.0201564496"></polygon>
                    <path d="M23.277007,9.88570243 L23.277007,32.0041092 L29.9476239,32.0041092 L29.9476239,22.3492452 L38.5141149,20.207613 L38.5141149,32.0040715 L45.1847695,32.0040715 L45.1847695,0.0201187739 L33.142553,0.0201187739 C27.7006884,0.0201564496 23.277007,4.4438378 23.277007,9.88570243 L23.277007,9.88570243 Z M38.5492286,14.2040428 L29.9827375,16.345675 L29.9827375,9.88570243 C29.9827375,8.13024521 31.4221718,6.69081098 33.177629,6.69081098 L38.5492286,6.69081098 L38.5492286,14.2040428 L38.5492286,14.2040428 Z" id="Shape"></path>
                    <path d="M118,10.7282797 C118,9.32395913 117.719128,7.91960089 117.192499,6.65569732 C116.665831,5.39175607 115.893481,4.26830715 114.945526,3.28527522 C113.997607,2.30220562 112.874121,1.52981801 111.610217,0.968074713 C110.276124,0.371217752 108.871728,0.0903837803 107.397218,0.0903837803 L96.0571239,0.0903837803 L96.0571239,31.9689955 L102.727778,31.9689955 L102.727778,21.3661756 L107.32699,21.3661756 C107.678089,21.3661756 107.994075,21.3310619 108.345136,21.3310619 L111.996392,31.9689579 L118,31.9689579 L113.68166,19.2596194 C116.314808,17.3287069 118,14.2391188 118,10.7282797 M107.362104,14.6955587 L102.762854,14.6955587 L102.762854,6.76100064 L107.362066,6.76100064 L107.642938,6.79615198 C109.714305,6.93660664 111.294232,8.69198851 111.294232,10.7282797 C111.329345,12.9050255 109.538812,14.6955587 107.362104,14.6955587" id="Shape"></path>
                </g>
            </g>
        </g>
    </g>
</svg>