<?xml version="1.0" encoding="UTF-8"?>
<svg width="183px" height="31px" viewBox="0 0 183 31" version="1.1" xmlns="http://www.w3.org/2000/svg" xmlns:xlink="http://www.w3.org/1999/xlink">
    <!-- Generator: Sketch 42 (36781) - http://www.bohemiancoding.com/sketch -->
    <title>Group 5</title>
    <desc>Created with Sketch.</desc>
    <defs>
        <polygon id="path-1" points="0.35280283 30.9173554 28.5823564 30.9173554 28.5823564 0.305619835 0.35280283 0.305619835 0.35280283 30.9173554"></polygon>
        <polygon id="path-3" points="0 30.9671074 182.387769 30.9671074 182.387769 0.355371901 0 0.355371901"></polygon>
    </defs>
    <g id="Assets" stroke="none" stroke-width="1" fill="none" fill-rule="evenodd" opacity="0.85">
        <g id="Artboard" transform="translate(-362.000000, -96.000000)">
            <g id="Group-5" transform="translate(362.000000, 96.000000)">
                <g id="Page-1">
                    <g id="Group-3" transform="translate(119.684471, 0.049752)">
                        <mask id="mask-2" fill="white">
                            <use xlink:href="#path-1"></use>
                        </mask>
                        <g id="Clip-2"></g>
                        <path d="M28.5823564,30.3031306 L24.9001944,30.3031306 L24.3472308,28.8905273 C22.5192903,30.1044777 19.5353469,30.9175686 16.4615513,30.9175686 C6.48831892,30.9175686 0.35280283,24.7508 0.35280283,15.6575438 C0.35280283,5.89370083 7.81443707,0.305477686 16.9527193,0.305477686 C21.4385786,0.305477686 24.0023833,1.26498182 25.6982093,2.0556843 L25.4219051,8.16630413 C23.9491113,7.18334545 21.340558,6.13926281 17.4438874,6.13926281 C11.5221696,6.13926281 7.31829699,9.76263471 7.31829699,15.6266264 C7.31829699,21.1576347 11.0920869,25.0532215 16.7683982,25.0532215 C18.9472238,25.0532215 20.4594388,24.7330314 22.1080303,23.8858248 L22.1080303,18.973519 L15.9092981,18.973519 L15.9092981,13.8152959 L28.5823564,13.8152959 L28.5823564,30.3031306 Z" id="Fill-1" fill="#FFFFFF" mask="url(#mask-2)"></path>
                    </g>
                    <mask id="mask-4" fill="white">
                        <use xlink:href="#path-3"></use>
                    </mask>
                    <g id="Clip-5"></g>
                    <polygon id="Fill-4" fill="#FFFFFF" mask="url(#mask-4)" points="57.073156 30.4145041 63.7619908 30.4145041 63.7619908 0.938892562 57.073156 0.938892562"></polygon>
                    <polygon id="Fill-6" fill="#FFFFFF" mask="url(#mask-4)" points="53.0842182 30.4146463 46.3950282 30.4146463 46.3950282 17.3959521 33.9677314 17.3959521 33.9677314 30.4146463 27.2785415 30.4146463 27.3094393 0.939034711 33.9677314 0.939034711 33.9677314 11.6542083 46.3950282 11.6542083 46.3950282 1.03072066 53.0842182 1.03072066"></polygon>
                    <path d="M175.72898,15.6150058 C175.72898,9.87361736 171.310599,6.18947686 166.339964,6.18947686 C161.3949,6.18947686 156.950238,9.87397273 156.950238,15.6150058 C156.950238,21.5411876 161.3949,25.1332868 166.339964,25.1332868 C171.402582,25.1332868 175.72898,21.5731711 175.72898,15.6150058 M182.387627,15.6150058 C182.387627,25.2562455 174.685559,30.9670719 166.339609,30.9670719 C157.287627,30.9670719 149.984744,25.0412455 149.984744,15.6150058 C149.984744,6.34264215 157.31817,0.355691736 166.339609,0.355691736 C174.716101,0.355691736 182.387627,6.25060083 182.387627,15.6150058" id="Fill-7" fill="#FFFFFF" mask="url(#mask-4)"></path>
                    <path d="M110.402425,20.5891818 L106.443959,10.3956942 L102.425118,20.5891818 L110.402425,20.5891818 Z M122.215673,30.4145041 L114.237656,30.4145041 L112.641981,26.3309256 L100.214684,26.3309256 L98.5884672,30.4145041 L91.1012624,30.4145041 L104.479997,0.938892562 L108.622075,0.938892562 L122.215673,30.4145041 Z" id="Fill-8" fill="#FFFFFF" mask="url(#mask-4)"></path>
                    <path d="M90.4573457,23.5674826 L90.1199563,29.5238711 C88.4017561,30.2303504 86.299287,30.9670364 82.510581,30.9670364 C73.3879252,30.9670364 66.0942753,25.5326893 66.0942753,15.6764496 C66.0942753,5.2374 74.5563581,0.355656198 82.602564,0.355656198 C86.8003992,0.355656198 88.8677087,1.29739174 90.4268031,1.92142479 L90.0585159,7.8781686 C88.5242817,7.07964793 86.2843709,6.18944132 82.510581,6.18944132 C77.2941848,6.18944132 73.0288717,9.91160661 73.0288717,15.7070116 C73.0288717,21.4185488 77.1705937,25.1026893 82.6949022,25.1026893 C86.3923355,25.1026893 88.9426446,24.2362926 90.4573457,23.5674826" id="Fill-9" fill="#FFFFFF" mask="url(#mask-4)"></path>
                    <path d="M24.3634611,23.5674826 L24.0260716,29.5238711 C22.3075162,30.2303504 20.2054023,30.9670364 16.4163411,30.9670364 C7.29368532,30.9670364 3.55146799e-05,25.5326893 3.55146799e-05,15.6764496 C3.55146799e-05,5.2374 8.46247343,0.355656198 16.5083242,0.355656198 C20.7065145,0.355656198 22.7734688,1.29739174 24.3329184,1.92142479 L23.9646312,7.8781686 C22.430397,7.07964793 20.1904862,6.18944132 16.4163411,6.18944132 C11.199945,6.18944132 6.93463191,9.91160661 6.93463191,15.7070116 C6.93463191,21.4185488 11.0763539,25.1026893 16.6003072,25.1026893 C20.2980956,25.1026893 22.84876,24.2362926 24.3634611,23.5674826" id="Fill-10" fill="#FFFFFF" mask="url(#mask-4)"></path>
                </g>
            </g>
        </g>
    </g>
</svg>