<?xml version="1.0" encoding="UTF-8"?>
<svg width="248px" height="32px" viewBox="0 0 248 32" version="1.1" xmlns="http://www.w3.org/2000/svg" xmlns:xlink="http://www.w3.org/1999/xlink">
    <!-- Generator: Sketch 42 (36781) - http://www.bohemiancoding.com/sketch -->
    <title>fw-logo</title>
    <desc>Created with Sketch.</desc>
    <defs></defs>
    <g id="Assets" stroke="none" stroke-width="1" fill="none" fill-rule="evenodd" opacity="0.85">
        <g id="Artboard" transform="translate(-594.000000, -96.000000)" fill-rule="nonzero" fill="#FFFFFF">
            <g id="fw-logo" transform="translate(594.500000, 96.000000)">
                <path d="M18.3665116,13.3492093 L18.3665116,19.2952558 L7.12409302,19.2952558 L7.12409302,31.3897674 L0,31.3897674 L0,0.61172093 L20.3013953,0.61172093 L20.3013953,6.55627907 L6.99013953,6.55627907 L6.99013953,13.3492093 L18.3687442,13.3492093 L18.3665116,13.3492093 Z M182.667907,0.61172093 L189.659535,0.61172093 L189.659535,31.3897674 L182.667907,31.3897674 L182.667907,0.61172093 Z M202.589767,0.61172093 L214.507163,20.055814 L214.507163,0.61172093 L221.184,0.61172093 L221.184,31.3875349 L214.650047,31.3875349 L202.329302,11.944186 L202.329302,31.3882791 L195.650977,31.3882791 L195.650977,0.61172093 L202.589023,0.61172093 L202.589767,0.61172093 Z M244.630326,13.015814 L244.630326,18.5175814 L233.20707,18.5175814 L233.20707,25.4444651 L247.054884,25.4444651 L247.054884,31.3905116 L226.217674,31.3905116 L226.217674,0.612465116 L246.563721,0.612465116 L246.563721,6.55627907 L233.20707,6.55627907 L233.20707,13.015814 L244.630326,13.015814 L244.630326,13.015814 Z M36.1302326,5.94604651 C40.6578605,5.94604651 42.900093,9.8827907 42.900093,16 C42.900093,22.1172093 40.6578605,26.0539535 36.1302326,26.0539535 C31.6033488,26.0539535 29.3603721,22.1172093 29.3603721,16 C29.3603721,9.8827907 31.6033488,5.94604651 36.1302326,5.94604651 L36.1302326,5.94604651 Z M22.1469767,16 C22.1469767,24.7263256 26.280186,32 36.1302326,32 C45.9832558,32 50.1134884,24.7263256 50.1134884,16 C50.1134884,7.27218605 45.9832558,0 36.1302326,0 C26.280186,0 22.1469767,7.27069767 22.1469767,15.9977674 L22.1469767,16 Z M91.0243721,6.55627907 L92.5425116,6.55627907 C98.9603721,6.55627907 101.77786,8.9547907 101.77786,16 C101.77786,23.0474419 98.9603721,25.4437209 92.5425116,25.4437209 L91.0243721,25.4437209 L91.0243721,6.55627907 L91.0243721,6.55627907 Z M84.0334884,31.3897674 L91.7670698,31.3897674 C102.353116,31.3897674 108.857302,26.9410233 108.857302,16 C108.857302,5.06195349 102.353116,0.613209302 91.7670698,0.613209302 L84.0334884,0.613209302 L84.0334884,31.3897674 L84.0334884,31.3897674 Z M145.629767,0.61172093 L150.754233,21.300093 L156.767256,0.61172093 L162.180465,0.61172093 L167.967256,21.300093 L172.907163,0.61172093 L179.589953,0.61172093 L171.225302,31.3875349 L165.253953,31.3875349 L159.157581,12.1131163 L153.152,31.3875349 L146.950698,31.3875349 L138.814512,0.61172093 L145.631256,0.61172093 L145.629767,0.61172093 Z M67.0288372,5.94604651 C71.5557209,5.94604651 73.7986977,9.8827907 73.7986977,16 C73.7986977,22.1172093 71.5557209,26.0539535 67.0288372,26.0539535 C62.5012093,26.0539535 60.2589767,22.1172093 60.2589767,16 C60.2589767,9.8827907 62.5012093,5.94604651 67.0288372,5.94604651 L67.0288372,5.94604651 Z M53.0455814,16 C53.0455814,24.7263256 57.1787907,32 67.0288372,32 C76.8788837,32 81.0135814,24.7263256 81.0135814,16 C81.0135814,7.27218605 76.8796279,0 67.0288372,0 C57.1780465,0 53.0455814,7.27218605 53.0455814,16 L53.0455814,16 Z M123.214884,30.1633488 C125.936372,30.1633488 127.986605,28.9101395 128.867721,28.040186 C127.042233,26.5190698 123.918884,23.5259535 123.086884,22.6388837 C122.253395,21.7533023 120.203163,19.4887442 119.482047,18.4416744 C118.105302,19.3771163 116.93693,20.9763721 116.93693,23.5095814 C116.93693,27.4701395 119.754419,30.1626047 123.21414,30.1626047 L123.214884,30.1633488 Z M122.108279,32 C115.877209,32 113.764465,27.7566512 113.764465,25.0016744 C113.764465,21.2956279 116.614698,18.6180465 118.82493,17.4310698 C117.559814,15.7194419 117.239814,14.4223256 117.22493,12.9972093 C117.207814,10.4967442 119.626419,7.17023256 124.558884,7.17023256 C126.160372,7.17023256 127.56986,7.488 128.436093,7.89953488 C128.898977,8.10493023 128.916093,8.32744186 128.916093,8.70623256 C128.916093,9.70344186 128.722605,12.0788837 128.627349,12.5536744 C128.547721,13.0299535 128.435349,13.0917209 128.274605,13.0917209 C128.098977,13.0917209 128.066233,12.9652093 128.066233,12.4904186 C128.066233,11.6666047 127.85786,10.6388837 127.106233,9.81432558 C126.432744,9.07013953 125.327628,8.40409302 123.727628,8.40409302 C122.092651,8.40409302 119.979163,9.44818605 119.979163,12.2835349 C119.979163,15.0072558 122.22214,17.3030698 125.168372,20.5015814 C126.257116,21.7071628 130.196837,25.2844651 131.013209,25.9817674 C131.782698,24.9354419 132.599814,22.8450233 132.599814,20.9138605 C132.599814,20.4375814 132.47107,19.8377674 131.991814,19.4091163 C131.57507,19.0132093 130.902326,18.9179535 130.421581,18.9179535 C130.228093,18.9179535 130.037581,18.8554419 130.037581,18.6820465 C130.037581,18.4736744 130.292837,18.4126512 130.548837,18.4126512 C131.317581,18.4126512 132.599814,18.4424186 134.393302,18.635907 C134.936558,18.6969302 135.226791,18.9186977 135.226791,19.2684651 C135.226791,21.7689302 133.689302,24.8409302 132.071442,26.7564651 C134.201302,28.5142326 135.625674,29.3707907 136.506791,29.876093 C137.532279,30.4788837 139.230512,31.0489302 140.127256,31.0489302 C140.415256,31.0489302 140.575256,31.0786977 140.575256,31.3004651 C140.575256,31.4604651 140.318512,31.5557209 139.823628,31.5557209 L137.020279,31.5557209 C134.009302,31.5557209 133.047814,31.2714419 129.908837,28.8483721 C129.010605,29.6870698 126.671628,32 122.107535,32 L122.108279,32 Z" id="Shape"></path>
            </g>
        </g>
    </g>
</svg>